<svg width="145" height="142" viewBox="0 0 145 142" fill="none" xmlns="http://www.w3.org/2000/svg">
<g clip-path="url(#clip0_1_5025)">
<mask id="mask0_1_5025" style="mask-type:luminance" maskUnits="userSpaceOnUse" x="0" y="0" width="145" height="142">
<path d="M145 0H0V141.754H145V0Z" fill="white"/>
</mask>
<g mask="url(#mask0_1_5025)">
<path d="M0 5.07556L5.06723 0H5.88746L0 5.89713V5.07556Z" fill="#DDB764"/>
<path d="M0 12.4755V11.654L11.6346 0H12.4548L0 12.4755Z" fill="#DDB764"/>
<path d="M0 19.052V18.2304L18.2002 0H19.0204L0 19.052Z" fill="#DDB764"/>
<path d="M0 25.6304V24.8088L24.7679 0H25.5881L0 25.6304Z" fill="#DDB764"/>
<path d="M0 32.2067V31.3852L31.3334 0H32.1536L0 32.2067Z" fill="#DDB764"/>
<path d="M0 38.7872V37.9657L37.9028 0H38.7229L0 38.7872Z" fill="#DDB764"/>
<path d="M0 45.3596V44.5381L44.4647 0H45.2848L0 45.3596Z" fill="#DDB764"/>
<path d="M0 51.9378V51.1162L51.0323 0H51.8526L0 51.9378Z" fill="#DDB764"/>
<path d="M0 58.5141V57.6927L57.5981 0H58.4182L0 58.5141Z" fill="#DDB764"/>
<path d="M0 65.0946V64.2731L64.1671 0H64.9873L0 65.0946Z" fill="#DDB764"/>
<path d="M0 71.671V70.8496L70.7327 0H71.5528L0 71.671Z" fill="#DDB764"/>
<path d="M0 78.2475V77.426L77.2983 0H78.1185L0 78.2475Z" fill="#DDB764"/>
<path d="M0 84.8239V84.0025L83.8639 0H84.6841L0 84.8239Z" fill="#DDB764"/>
<path d="M0 91.405V90.5829L90.433 0H91.2531L0 91.405Z" fill="#DDB764"/>
<path d="M0 97.9814V97.16L96.9986 0H97.8187L0 97.9814Z" fill="#DDB764"/>
<path d="M0 104.559V103.738L103.567 0H104.387L0 104.559Z" fill="#DDB764"/>
<path d="M0 111.131V110.31L110.129 0H110.949L0 111.131Z" fill="#DDB764"/>
<path d="M0 117.712V116.89L116.698 0H117.518L0 117.712Z" fill="#DDB764"/>
<path d="M0 124.288V123.467L123.263 0H124.083L0 124.288Z" fill="#DDB764"/>
<path d="M0 130.867V130.045L129.831 0H130.652L0 130.867Z" fill="#DDB764"/>
<path d="M0 137.443V136.622L136.397 0H137.218L0 137.443Z" fill="#DDB764"/>
<path d="M0 144.022V143.201L142.964 0H143.784L0 144.022Z" fill="#DDB764"/>
<path d="M0 150.599V149.777L149.529 0H150.349L0 150.599Z" fill="#DDB764"/>
<path d="M0 157.176V156.355L156.097 0H156.917L0 157.176Z" fill="#DDB764"/>
<path d="M0 163.753V162.931L162.663 0H163.483L0 163.753Z" fill="#DDB764"/>
<path d="M0 170.329V169.508L169.228 0H170.048L0 170.329Z" fill="#DDB764"/>
<path d="M0 176.906V176.084L175.794 0H176.614L0 176.906Z" fill="#DDB764"/>
<path d="M0 183.483V182.662L182.362 0H183.183L0 183.483Z" fill="#DDB764"/>
<path d="M0 190.06V189.238L188.928 0H189.748L0 190.06Z" fill="#DDB764"/>
<path d="M0 196.641V195.819L195.497 0H196.317L0 196.641Z" fill="#DDB764"/>
<path d="M0 203.216V202.395L202.059 0H202.88L0 203.216Z" fill="#DDB764"/>
<path d="M0 209.794V208.972L208.628 0H209.448L0 209.794Z" fill="#DDB764"/>
<path d="M0 216.37V215.549L215.193 0H216.013L0 216.37Z" fill="#DDB764"/>
<path d="M0 222.952V222.13L221.762 0H222.582L0 222.952Z" fill="#DDB764"/>
<path d="M0 229.528V228.706L228.327 0H229.148L0 229.528Z" fill="#DDB764"/>
<path d="M0 236.101V235.279L234.893 0H235.713L0 236.101Z" fill="#DDB764"/>
<path d="M0 242.677V241.856L241.459 0H242.279L0 242.677Z" fill="#DDB764"/>
<path d="M0 249.258V248.437L248.027 0H248.847L0 249.258Z" fill="#DDB764"/>
<path d="M0 255.835V255.013L254.593 0H255.413L0 255.835Z" fill="#DDB764"/>
<path d="M0 262.412V261.591L261.161 0H261.981L0 262.412Z" fill="#DDB764"/>
<path d="M0 268.988V268.166L267.724 0H268.544L0 268.988Z" fill="#DDB764"/>
<path d="M0 275.569V274.748L274.292 0H275.113L0 275.569Z" fill="#DDB764"/>
<path d="M0 282.146V281.324L280.858 0H281.678L0 282.146Z" fill="#DDB764"/>
<path d="M0 288.723V287.901L287.427 0H288.247L0 288.723Z" fill="#DDB764"/>
<path d="M0 295.299V294.478L293.992 0H294.812L0 295.299Z" fill="#DDB764"/>
<path d="M0 301.876V301.054L300.558 0H301.378L0 301.876Z" fill="#DDB764"/>
<path d="M0 308.452V307.63L307.123 0H307.944L0 308.452Z" fill="#DDB764"/>
<path d="M0 315.029V314.208L313.692 0H314.513L0 315.029Z" fill="#DDB764"/>
<path d="M0 321.606V320.784L320.258 0H321.078L0 321.606Z" fill="#DDB764"/>
<path d="M0 328.187V327.365L326.823 0H327.643L0 328.187Z" fill="#DDB764"/>
<path d="M0 334.764V333.942L333.392 0H334.212L0 334.764Z" fill="#DDB764"/>
<path d="M0 341.34V340.519L339.957 0H340.777L0 341.34Z" fill="#DDB764"/>
<path d="M0 347.917V347.095L346.523 0H347.343L0 347.917Z" fill="#DDB764"/>
<path d="M0 354.498V353.677L353.091 0H353.911L0 354.498Z" fill="#DDB764"/>
<path d="M0 361.07V360.248L359.657 0H360.478L0 361.07Z" fill="#DDB764"/>
<path d="M0 367.646V366.825L366.223 0H367.043L0 367.646Z" fill="#DDB764"/>
<path d="M0 374.223V373.401L372.789 0H373.609L0 374.223Z" fill="#DDB764"/>
<path d="M0 380.805V379.983L379.357 0H380.177L0 380.805Z" fill="#DDB764"/>
<path d="M0 387.382V386.56L385.926 0H386.746L0 387.382Z" fill="#DDB764"/>
<path d="M0 393.957V393.136L392.488 0H393.308L0 393.957Z" fill="#DDB764"/>
<path d="M0 400.534V399.712L399.053 0H399.873L0 400.534Z" fill="#DDB764"/>
<path d="M0 407.116V406.295L405.621 0H406.441L0 407.116Z" fill="#DDB764"/>
<path d="M0 413.693V412.871L412.19 0H413.01L0 413.693Z" fill="#DDB764"/>
<path d="M0 420.269V419.448L418.756 0H419.576L0 420.269Z" fill="#DDB764"/>
<path d="M0 426.84V426.019L425.319 0H426.14L0 426.84Z" fill="#DDB764"/>
<path d="M0 433.422V432.6L431.887 0H432.707L0 433.422Z" fill="#DDB764"/>
<path d="M0 439.999V439.177L438.457 0H439.277L0 439.999Z" fill="#DDB764"/>
<path d="M0 446.575V445.753L445.022 0H445.843L0 446.575Z" fill="#DDB764"/>
<path d="M0 453.157V452.336L451.59 0H452.41L0 453.157Z" fill="#DDB764"/>
<path d="M0 459.733V458.912L458.152 0H458.972L0 459.733Z" fill="#DDB764"/>
<path d="M0 466.31V465.488L464.721 0H465.541L0 466.31Z" fill="#DDB764"/>
<path d="M0 472.886V472.065L471.287 0H472.107L0 472.886Z" fill="#DDB764"/>
<path d="M0 479.469V478.647L477.855 0H478.675L0 479.469Z" fill="#DDB764"/>
<path d="M0.363839 485.681H0V485.224L484.419 0H485.24L0.363839 485.681Z" fill="#DDB764"/>
<path d="M6.92369 485.681H6.10352L490.987 0H491.808L6.92369 485.681Z" fill="#DDB764"/>
<path d="M13.4894 485.681H12.6692L497.553 0H498.373L13.4894 485.681Z" fill="#DDB764"/>
<path d="M20.0607 485.681H19.2405L504.12 0H504.94L20.0607 485.681Z" fill="#DDB764"/>
<path d="M26.6263 485.681H25.8062L510.686 0H511.506L26.6263 485.681Z" fill="#DDB764"/>
<path d="M33.1918 485.681H32.3716L517.251 0H518.072L33.1918 485.681Z" fill="#DDB764"/>
<path d="M39.7574 485.681H38.9373L523.817 0H524.637L39.7574 485.681Z" fill="#DDB764"/>
<path d="M46.3287 485.681H45.5085L530.385 0H531.205L46.3287 485.681Z" fill="#DDB764"/>
<path d="M52.8942 485.681H52.074L536.95 0H537.77L52.8942 485.681Z" fill="#DDB764"/>
<path d="M59.4598 485.681H58.6396L543.52 0H544.34L59.4598 485.681Z" fill="#DDB764"/>
<path d="M66.0203 485.681H65.2002L550.084 0H550.904L66.0203 485.681Z" fill="#DDB764"/>
<path d="M72.5911 485.681H71.771L556.651 0H557.471L72.5911 485.681Z" fill="#DDB764"/>
<path d="M79.1565 485.681H78.3364L563.216 0H564.037L79.1565 485.681Z" fill="#DDB764"/>
<path d="M85.723 485.681H84.9028L569.786 0H570.607L85.723 485.681Z" fill="#DDB764"/>
<path d="M92.2884 485.681H91.4683L576.352 0H577.172L92.2884 485.681Z" fill="#DDB764"/>
<path d="M98.8592 485.681H98.0391L582.917 0H583.735L98.8592 485.681Z" fill="#DDB764"/>
<path d="M105.425 485.681H104.604L589.483 0H590.301L105.425 485.681Z" fill="#DDB764"/>
<path d="M111.991 485.681H111.17L596.049 0H596.872L111.991 485.681Z" fill="#DDB764"/>
<path d="M118.556 485.681H117.736L602.614 0H603.438L118.556 485.681Z" fill="#DDB764"/>
<path d="M125.127 485.681H124.307L609.186 0H610.003L125.127 485.681Z" fill="#DDB764"/>
<path d="M131.687 485.681H130.867L615.745 0H616.569L131.687 485.681Z" fill="#DDB764"/>
<path d="M138.253 485.681H137.433L622.317 0H623.14L138.253 485.681Z" fill="#DDB764"/>
<path d="M144.819 485.681H143.999L628.883 0H629.706L144.819 485.681Z" fill="#DDB764"/>
</g>
<rect x="35" y="32.6179" width="76" height="76" fill="#DDB764"/>
<path d="M66.509 53.7998C66.509 51.4725 68.3999 49.6543 70.7272 49.6543C73.0545 49.6543 74.8727 51.5452 74.8727 53.7998C74.8727 56.127 72.9818 58.0179 70.7272 58.0179C68.3999 58.0179 66.509 56.127 66.509 53.7998Z" fill="#45556E"/>
<path d="M96.8363 87.7634L80.3999 60.8543L87.8908 59.2543C89.4181 58.9634 90.2908 57.3634 89.709 55.9089C89.2726 54.7452 88.109 54.0907 86.8726 54.3089C74.7999 56.6361 75.4545 56.4907 75.2363 56.6361C68.909 60.7816 71.5999 57.7271 69.1272 65.5816L64.7635 69.218L62.6545 64.8543C62.7272 58.5271 63.5999 56.7816 62.1454 53.7998C60.3272 50.0907 56.909 48.9271 54.5817 50.018C52.2545 51.1816 51.0908 54.6725 52.909 58.3089C54.3635 61.3634 56.3999 61.7271 61.3454 65.5089L63.6726 70.2361C62.9454 71.1816 62.7999 72.4907 63.5272 73.5089C64.3999 74.7452 66.2181 75.0361 67.3817 74.018L73.8545 68.7089L75.0181 70.4543L69.8545 78.018C69.1999 79.0361 68.9817 80.2725 69.3454 81.5089L72.5454 91.3998C73.0545 93.1452 74.9454 94.018 76.5454 93.5089C78.2181 92.9998 79.1635 91.2543 78.7272 89.5816L76.1817 80.4907C76.0363 79.8361 76.2545 79.1816 76.7635 78.818L78.1454 77.7271C79.0181 76.9998 80.3999 77.1452 81.1272 78.0907L91.6726 91.3998C92.8363 92.8543 94.8726 92.9998 96.2545 91.8361C97.3454 90.818 97.6363 89.0725 96.8363 87.7634ZM61.2726 63.618L59.4545 62.3816C60.1817 62.2361 60.8363 61.9452 61.3454 61.4361L61.2726 63.618Z" fill="#45556E"/>
<path d="M56.4 74.0906C56.4 75.6179 55.0909 76.927 53.5637 76.927C51.9637 76.927 50.7273 75.6179 50.7273 74.0906C50.7273 72.4906 52.0364 71.2543 53.5637 71.2543C55.1637 71.2543 56.4 72.5634 56.4 74.0906Z" fill="#45556E"/>
</g>
<defs>
<clipPath id="clip0_1_5025">
<rect width="145" height="141.754" fill="white"/>
</clipPath>
</defs>
</svg>
