<svg width="145" height="142" viewBox="0 0 145 142" fill="none" xmlns="http://www.w3.org/2000/svg">
<g clip-path="url(#clip0_3_1306)">
<mask id="mask0_3_1306" style="mask-type:luminance" maskUnits="userSpaceOnUse" x="0" y="0" width="145" height="142">
<path d="M145 0H0V141.754H145V0Z" fill="white"/>
</mask>
<g mask="url(#mask0_3_1306)">
<path d="M0 5.07556L5.06723 0H5.88746L0 5.89713V5.07556Z" fill="#DDB764"/>
<path d="M0 12.4755V11.654L11.6346 0H12.4548L0 12.4755Z" fill="#DDB764"/>
<path d="M0 19.052V18.2304L18.2002 0H19.0204L0 19.052Z" fill="#DDB764"/>
<path d="M0 25.6304V24.8088L24.7679 0H25.5881L0 25.6304Z" fill="#DDB764"/>
<path d="M0 32.2067V31.3852L31.3334 0H32.1536L0 32.2067Z" fill="#DDB764"/>
<path d="M0 38.7872V37.9657L37.9028 0H38.7229L0 38.7872Z" fill="#DDB764"/>
<path d="M0 45.3596V44.5381L44.4647 0H45.2848L0 45.3596Z" fill="#DDB764"/>
<path d="M0 51.9378V51.1162L51.0323 0H51.8526L0 51.9378Z" fill="#DDB764"/>
<path d="M0 58.5141V57.6927L57.5981 0H58.4182L0 58.5141Z" fill="#DDB764"/>
<path d="M0 65.0946V64.2731L64.1671 0H64.9873L0 65.0946Z" fill="#DDB764"/>
<path d="M0 71.671V70.8496L70.7327 0H71.5528L0 71.671Z" fill="#DDB764"/>
<path d="M0 78.2475V77.426L77.2983 0H78.1185L0 78.2475Z" fill="#DDB764"/>
<path d="M0 84.8239V84.0025L83.8639 0H84.6841L0 84.8239Z" fill="#DDB764"/>
<path d="M0 91.405V90.5829L90.433 0H91.2531L0 91.405Z" fill="#DDB764"/>
<path d="M0 97.9814V97.16L96.9986 0H97.8187L0 97.9814Z" fill="#DDB764"/>
<path d="M0 104.559V103.738L103.567 0H104.387L0 104.559Z" fill="#DDB764"/>
<path d="M0 111.131V110.31L110.129 0H110.949L0 111.131Z" fill="#DDB764"/>
<path d="M0 117.712V116.89L116.698 0H117.518L0 117.712Z" fill="#DDB764"/>
<path d="M0 124.288V123.467L123.263 0H124.083L0 124.288Z" fill="#DDB764"/>
<path d="M0 130.867V130.045L129.831 0H130.652L0 130.867Z" fill="#DDB764"/>
<path d="M0 137.443V136.622L136.397 0H137.218L0 137.443Z" fill="#DDB764"/>
<path d="M0 144.022V143.201L142.964 0H143.784L0 144.022Z" fill="#DDB764"/>
<path d="M0 150.599V149.777L149.529 0H150.349L0 150.599Z" fill="#DDB764"/>
<path d="M0 157.176V156.355L156.097 0H156.917L0 157.176Z" fill="#DDB764"/>
<path d="M0 163.753V162.931L162.663 0H163.483L0 163.753Z" fill="#DDB764"/>
<path d="M0 170.329V169.508L169.228 0H170.048L0 170.329Z" fill="#DDB764"/>
<path d="M0 176.906V176.084L175.794 0H176.614L0 176.906Z" fill="#DDB764"/>
<path d="M0 183.483V182.662L182.362 0H183.183L0 183.483Z" fill="#DDB764"/>
<path d="M0 190.06V189.238L188.928 0H189.748L0 190.06Z" fill="#DDB764"/>
<path d="M0 196.641V195.819L195.497 0H196.317L0 196.641Z" fill="#DDB764"/>
<path d="M0 203.216V202.395L202.059 0H202.88L0 203.216Z" fill="#DDB764"/>
<path d="M0 209.794V208.972L208.628 0H209.448L0 209.794Z" fill="#DDB764"/>
<path d="M0 216.37V215.549L215.193 0H216.013L0 216.37Z" fill="#DDB764"/>
<path d="M0 222.952V222.13L221.762 0H222.582L0 222.952Z" fill="#DDB764"/>
<path d="M0 229.528V228.706L228.327 0H229.148L0 229.528Z" fill="#DDB764"/>
<path d="M0 236.101V235.279L234.893 0H235.713L0 236.101Z" fill="#DDB764"/>
<path d="M0 242.677V241.856L241.459 0H242.279L0 242.677Z" fill="#DDB764"/>
<path d="M0 249.258V248.437L248.027 0H248.847L0 249.258Z" fill="#DDB764"/>
<path d="M0 255.835V255.013L254.593 0H255.413L0 255.835Z" fill="#DDB764"/>
<path d="M0 262.412V261.591L261.161 0H261.981L0 262.412Z" fill="#DDB764"/>
<path d="M0 268.988V268.166L267.724 0H268.544L0 268.988Z" fill="#DDB764"/>
<path d="M0 275.569V274.748L274.292 0H275.113L0 275.569Z" fill="#DDB764"/>
<path d="M0 282.146V281.324L280.858 0H281.678L0 282.146Z" fill="#DDB764"/>
<path d="M0 288.723V287.901L287.427 0H288.247L0 288.723Z" fill="#DDB764"/>
<path d="M0 295.299V294.478L293.992 0H294.812L0 295.299Z" fill="#DDB764"/>
<path d="M0 301.876V301.054L300.558 0H301.378L0 301.876Z" fill="#DDB764"/>
<path d="M0 308.452V307.63L307.123 0H307.944L0 308.452Z" fill="#DDB764"/>
<path d="M0 315.029V314.208L313.692 0H314.513L0 315.029Z" fill="#DDB764"/>
<path d="M0 321.606V320.784L320.258 0H321.078L0 321.606Z" fill="#DDB764"/>
<path d="M0 328.187V327.365L326.823 0H327.643L0 328.187Z" fill="#DDB764"/>
<path d="M0 334.764V333.942L333.392 0H334.212L0 334.764Z" fill="#DDB764"/>
<path d="M0 341.34V340.519L339.957 0H340.777L0 341.34Z" fill="#DDB764"/>
<path d="M0 347.917V347.095L346.523 0H347.343L0 347.917Z" fill="#DDB764"/>
<path d="M0 354.498V353.677L353.091 0H353.911L0 354.498Z" fill="#DDB764"/>
<path d="M0 361.07V360.248L359.657 0H360.478L0 361.07Z" fill="#DDB764"/>
<path d="M0 367.646V366.825L366.223 0H367.043L0 367.646Z" fill="#DDB764"/>
<path d="M0 374.223V373.401L372.789 0H373.609L0 374.223Z" fill="#DDB764"/>
<path d="M0 380.805V379.983L379.357 0H380.177L0 380.805Z" fill="#DDB764"/>
<path d="M0 387.382V386.56L385.926 0H386.746L0 387.382Z" fill="#DDB764"/>
<path d="M0 393.957V393.136L392.488 0H393.308L0 393.957Z" fill="#DDB764"/>
<path d="M0 400.534V399.712L399.053 0H399.873L0 400.534Z" fill="#DDB764"/>
<path d="M0 407.116V406.295L405.621 0H406.441L0 407.116Z" fill="#DDB764"/>
<path d="M0 413.693V412.871L412.19 0H413.01L0 413.693Z" fill="#DDB764"/>
<path d="M0 420.269V419.448L418.756 0H419.576L0 420.269Z" fill="#DDB764"/>
<path d="M0 426.84V426.019L425.319 0H426.14L0 426.84Z" fill="#DDB764"/>
<path d="M0 433.422V432.6L431.887 0H432.707L0 433.422Z" fill="#DDB764"/>
<path d="M0 439.999V439.177L438.457 0H439.277L0 439.999Z" fill="#DDB764"/>
<path d="M0 446.575V445.753L445.022 0H445.843L0 446.575Z" fill="#DDB764"/>
<path d="M0 453.157V452.336L451.59 0H452.41L0 453.157Z" fill="#DDB764"/>
<path d="M0 459.733V458.912L458.152 0H458.972L0 459.733Z" fill="#DDB764"/>
<path d="M0 466.31V465.488L464.721 0H465.541L0 466.31Z" fill="#DDB764"/>
<path d="M0 472.886V472.065L471.287 0H472.107L0 472.886Z" fill="#DDB764"/>
<path d="M0 479.469V478.647L477.855 0H478.675L0 479.469Z" fill="#DDB764"/>
<path d="M0.363839 485.681H0V485.224L484.419 0H485.24L0.363839 485.681Z" fill="#DDB764"/>
<path d="M6.92369 485.681H6.10352L490.987 0H491.808L6.92369 485.681Z" fill="#DDB764"/>
<path d="M13.4894 485.681H12.6692L497.553 0H498.373L13.4894 485.681Z" fill="#DDB764"/>
<path d="M20.0607 485.681H19.2405L504.12 0H504.94L20.0607 485.681Z" fill="#DDB764"/>
<path d="M26.6263 485.681H25.8062L510.686 0H511.506L26.6263 485.681Z" fill="#DDB764"/>
<path d="M33.1918 485.681H32.3716L517.251 0H518.072L33.1918 485.681Z" fill="#DDB764"/>
<path d="M39.7574 485.681H38.9373L523.817 0H524.637L39.7574 485.681Z" fill="#DDB764"/>
<path d="M46.3287 485.681H45.5085L530.385 0H531.205L46.3287 485.681Z" fill="#DDB764"/>
<path d="M52.8942 485.681H52.074L536.95 0H537.77L52.8942 485.681Z" fill="#DDB764"/>
<path d="M59.4598 485.681H58.6396L543.52 0H544.34L59.4598 485.681Z" fill="#DDB764"/>
<path d="M66.0203 485.681H65.2002L550.084 0H550.904L66.0203 485.681Z" fill="#DDB764"/>
<path d="M72.5911 485.681H71.771L556.651 0H557.471L72.5911 485.681Z" fill="#DDB764"/>
<path d="M79.1565 485.681H78.3364L563.216 0H564.037L79.1565 485.681Z" fill="#DDB764"/>
<path d="M85.723 485.681H84.9028L569.786 0H570.607L85.723 485.681Z" fill="#DDB764"/>
<path d="M92.2884 485.681H91.4683L576.352 0H577.172L92.2884 485.681Z" fill="#DDB764"/>
<path d="M98.8592 485.681H98.0391L582.917 0H583.735L98.8592 485.681Z" fill="#DDB764"/>
<path d="M105.425 485.681H104.604L589.483 0H590.301L105.425 485.681Z" fill="#DDB764"/>
<path d="M111.991 485.681H111.17L596.049 0H596.872L111.991 485.681Z" fill="#DDB764"/>
<path d="M118.556 485.681H117.736L602.614 0H603.438L118.556 485.681Z" fill="#DDB764"/>
<path d="M125.127 485.681H124.307L609.186 0H610.003L125.127 485.681Z" fill="#DDB764"/>
<path d="M131.687 485.681H130.867L615.745 0H616.569L131.687 485.681Z" fill="#DDB764"/>
<path d="M138.253 485.681H137.433L622.317 0H623.14L138.253 485.681Z" fill="#DDB764"/>
<path d="M144.819 485.681H143.999L628.883 0H629.706L144.819 485.681Z" fill="#DDB764"/>
</g>
</g>
<rect x="35" y="33" width="76" height="76" fill="#DDB764"/>
<path d="M93.0938 78.125C93.0938 76.5781 91.8281 75.3125 90.2812 75.3125C91.8281 75.3125 93.0938 74.0469 93.0938 72.5C93.0938 70.9531 91.8281 69.6875 90.2812 69.6875H78.7501C80.4656 64.5405 80.4375 62.9 80.4375 59.75C80.4375 57.4099 78.5188 55.5312 76.2188 55.5312H75.375C74.8406 55.5312 74.1656 55.9532 74.0249 56.6C72.6336 62.017 70.4583 68.2329 64.9688 69.4919V89.8415L69.8343 91.4562C71.2687 91.9342 72.7594 92.1874 74.2781 92.1874H87.4688C89.0221 92.1875 90.2812 90.9282 90.2812 89.375C90.2812 87.8217 89.0221 86.5625 87.4688 86.5625H90.2812C91.8281 86.5625 93.0938 85.2969 93.0938 83.75C93.0938 82.2031 91.8281 80.9375 90.2812 80.9375C91.8281 80.9375 93.0938 79.6719 93.0938 78.125Z" fill="#45556E"/>
<path d="M57.9375 66.875H52.3125C51.5352 66.875 50.9062 67.504 50.9062 68.2812V93.5938C50.9062 94.371 51.5352 95 52.3125 95H57.9375C60.2638 95 62.1562 93.1076 62.1562 90.7812V71.0938C62.1562 68.7674 60.2638 66.875 57.9375 66.875ZM57.9375 89.375C57.1609 89.375 56.5312 88.7454 56.5312 87.9688C56.5312 87.1919 57.1609 86.5625 57.9375 86.5625C58.7141 86.5625 59.3438 87.1919 59.3438 87.9688C59.3438 88.7454 58.7141 89.375 57.9375 89.375Z" fill="#45556E"/>
<path d="M70.2518 53.2008L68.2633 51.2123C67.714 50.663 66.824 50.663 66.2748 51.2123C65.7255 51.7615 65.7255 52.6515 66.2748 53.2008L68.2633 55.1893C68.8126 55.7386 69.7024 55.7386 70.2518 55.1893C70.8011 54.64 70.8011 53.7501 70.2518 53.2008Z" fill="#45556E"/>
<path d="M86.1627 51.2123C85.6134 50.663 84.7235 50.663 84.1742 51.2123L82.1856 53.2008C81.6364 53.7501 81.6364 54.64 82.1856 55.1893C82.7349 55.7386 83.6249 55.7386 84.1742 55.1893L86.1627 53.2008C86.712 52.6515 86.712 51.7615 86.1627 51.2123Z" fill="#45556E"/>
<path d="M76.2188 47C75.4312 47 74.8125 47.6187 74.8125 48.4062V51.3125C74.8125 52.1001 75.4312 52.7188 76.2188 52.7188C77.0063 52.7188 77.625 52.1001 77.625 51.3125V48.4062C77.625 47.6187 77.0063 47 76.2188 47Z" fill="#45556E"/>
<defs>
<clipPath id="clip0_3_1306">
<rect width="145" height="141.754" fill="white"/>
</clipPath>
</defs>
</svg>
