<svg width="145" height="142" viewBox="0 0 145 142" fill="none" xmlns="http://www.w3.org/2000/svg">
<g clip-path="url(#clip0_3_1726)">
<mask id="mask0_3_1726" style="mask-type:luminance" maskUnits="userSpaceOnUse" x="0" y="0" width="145" height="142">
<path d="M145 0H0V141.754H145V0Z" fill="white"/>
</mask>
<g mask="url(#mask0_3_1726)">
<path d="M0 5.07556L5.06723 0H5.88746L0 5.89713V5.07556Z" fill="#DDB764"/>
<path d="M0 12.4755V11.654L11.6346 0H12.4548L0 12.4755Z" fill="#DDB764"/>
<path d="M0 19.052V18.2304L18.2002 0H19.0204L0 19.052Z" fill="#DDB764"/>
<path d="M0 25.6304V24.8088L24.7679 0H25.5881L0 25.6304Z" fill="#DDB764"/>
<path d="M0 32.2067V31.3852L31.3334 0H32.1536L0 32.2067Z" fill="#DDB764"/>
<path d="M0 38.7872V37.9657L37.9028 0H38.7229L0 38.7872Z" fill="#DDB764"/>
<path d="M0 45.3596V44.5381L44.4647 0H45.2848L0 45.3596Z" fill="#DDB764"/>
<path d="M0 51.9378V51.1162L51.0323 0H51.8526L0 51.9378Z" fill="#DDB764"/>
<path d="M0 58.5141V57.6927L57.5981 0H58.4182L0 58.5141Z" fill="#DDB764"/>
<path d="M0 65.0946V64.2731L64.1671 0H64.9873L0 65.0946Z" fill="#DDB764"/>
<path d="M0 71.671V70.8496L70.7327 0H71.5528L0 71.671Z" fill="#DDB764"/>
<path d="M0 78.2475V77.426L77.2983 0H78.1185L0 78.2475Z" fill="#DDB764"/>
<path d="M0 84.8239V84.0025L83.8639 0H84.6841L0 84.8239Z" fill="#DDB764"/>
<path d="M0 91.405V90.5829L90.433 0H91.2531L0 91.405Z" fill="#DDB764"/>
<path d="M0 97.9814V97.16L96.9986 0H97.8187L0 97.9814Z" fill="#DDB764"/>
<path d="M0 104.559V103.738L103.567 0H104.387L0 104.559Z" fill="#DDB764"/>
<path d="M0 111.131V110.31L110.129 0H110.949L0 111.131Z" fill="#DDB764"/>
<path d="M0 117.712V116.89L116.698 0H117.518L0 117.712Z" fill="#DDB764"/>
<path d="M0 124.288V123.467L123.263 0H124.083L0 124.288Z" fill="#DDB764"/>
<path d="M0 130.867V130.045L129.831 0H130.652L0 130.867Z" fill="#DDB764"/>
<path d="M0 137.443V136.622L136.397 0H137.218L0 137.443Z" fill="#DDB764"/>
<path d="M0 144.022V143.201L142.964 0H143.784L0 144.022Z" fill="#DDB764"/>
<path d="M0 150.599V149.777L149.529 0H150.349L0 150.599Z" fill="#DDB764"/>
<path d="M0 157.176V156.355L156.097 0H156.917L0 157.176Z" fill="#DDB764"/>
<path d="M0 163.753V162.931L162.663 0H163.483L0 163.753Z" fill="#DDB764"/>
<path d="M0 170.329V169.508L169.228 0H170.048L0 170.329Z" fill="#DDB764"/>
<path d="M0 176.906V176.084L175.794 0H176.614L0 176.906Z" fill="#DDB764"/>
<path d="M0 183.483V182.662L182.362 0H183.183L0 183.483Z" fill="#DDB764"/>
<path d="M0 190.06V189.238L188.928 0H189.748L0 190.06Z" fill="#DDB764"/>
<path d="M0 196.641V195.819L195.497 0H196.317L0 196.641Z" fill="#DDB764"/>
<path d="M0 203.216V202.395L202.059 0H202.88L0 203.216Z" fill="#DDB764"/>
<path d="M0 209.794V208.972L208.628 0H209.448L0 209.794Z" fill="#DDB764"/>
<path d="M0 216.37V215.549L215.193 0H216.013L0 216.37Z" fill="#DDB764"/>
<path d="M0 222.952V222.13L221.762 0H222.582L0 222.952Z" fill="#DDB764"/>
<path d="M0 229.528V228.706L228.327 0H229.148L0 229.528Z" fill="#DDB764"/>
<path d="M0 236.101V235.279L234.893 0H235.713L0 236.101Z" fill="#DDB764"/>
<path d="M0 242.677V241.856L241.459 0H242.279L0 242.677Z" fill="#DDB764"/>
<path d="M0 249.258V248.437L248.027 0H248.847L0 249.258Z" fill="#DDB764"/>
<path d="M0 255.835V255.013L254.593 0H255.413L0 255.835Z" fill="#DDB764"/>
<path d="M0 262.412V261.591L261.161 0H261.981L0 262.412Z" fill="#DDB764"/>
<path d="M0 268.988V268.166L267.724 0H268.544L0 268.988Z" fill="#DDB764"/>
<path d="M0 275.569V274.748L274.292 0H275.113L0 275.569Z" fill="#DDB764"/>
<path d="M0 282.146V281.324L280.858 0H281.678L0 282.146Z" fill="#DDB764"/>
<path d="M0 288.723V287.901L287.427 0H288.247L0 288.723Z" fill="#DDB764"/>
<path d="M0 295.299V294.478L293.992 0H294.812L0 295.299Z" fill="#DDB764"/>
<path d="M0 301.876V301.054L300.558 0H301.378L0 301.876Z" fill="#DDB764"/>
<path d="M0 308.452V307.63L307.123 0H307.944L0 308.452Z" fill="#DDB764"/>
<path d="M0 315.029V314.208L313.692 0H314.513L0 315.029Z" fill="#DDB764"/>
<path d="M0 321.606V320.784L320.258 0H321.078L0 321.606Z" fill="#DDB764"/>
<path d="M0 328.187V327.365L326.823 0H327.643L0 328.187Z" fill="#DDB764"/>
<path d="M0 334.764V333.942L333.392 0H334.212L0 334.764Z" fill="#DDB764"/>
<path d="M0 341.34V340.519L339.957 0H340.777L0 341.34Z" fill="#DDB764"/>
<path d="M0 347.917V347.095L346.523 0H347.343L0 347.917Z" fill="#DDB764"/>
<path d="M0 354.498V353.677L353.091 0H353.911L0 354.498Z" fill="#DDB764"/>
<path d="M0 361.07V360.248L359.657 0H360.478L0 361.07Z" fill="#DDB764"/>
<path d="M0 367.646V366.825L366.223 0H367.043L0 367.646Z" fill="#DDB764"/>
<path d="M0 374.223V373.401L372.789 0H373.609L0 374.223Z" fill="#DDB764"/>
<path d="M0 380.805V379.983L379.357 0H380.177L0 380.805Z" fill="#DDB764"/>
<path d="M0 387.382V386.56L385.926 0H386.746L0 387.382Z" fill="#DDB764"/>
<path d="M0 393.957V393.136L392.488 0H393.308L0 393.957Z" fill="#DDB764"/>
<path d="M0 400.534V399.712L399.053 0H399.873L0 400.534Z" fill="#DDB764"/>
<path d="M0 407.116V406.295L405.621 0H406.441L0 407.116Z" fill="#DDB764"/>
<path d="M0 413.693V412.871L412.19 0H413.01L0 413.693Z" fill="#DDB764"/>
<path d="M0 420.269V419.448L418.756 0H419.576L0 420.269Z" fill="#DDB764"/>
<path d="M0 426.84V426.019L425.319 0H426.14L0 426.84Z" fill="#DDB764"/>
<path d="M0 433.422V432.6L431.887 0H432.707L0 433.422Z" fill="#DDB764"/>
<path d="M0 439.999V439.177L438.457 0H439.277L0 439.999Z" fill="#DDB764"/>
<path d="M0 446.575V445.753L445.022 0H445.843L0 446.575Z" fill="#DDB764"/>
<path d="M0 453.157V452.336L451.59 0H452.41L0 453.157Z" fill="#DDB764"/>
<path d="M0 459.733V458.912L458.152 0H458.972L0 459.733Z" fill="#DDB764"/>
<path d="M0 466.31V465.488L464.721 0H465.541L0 466.31Z" fill="#DDB764"/>
<path d="M0 472.886V472.065L471.287 0H472.107L0 472.886Z" fill="#DDB764"/>
<path d="M0 479.469V478.647L477.855 0H478.675L0 479.469Z" fill="#DDB764"/>
<path d="M0.363839 485.681H0V485.224L484.419 0H485.24L0.363839 485.681Z" fill="#DDB764"/>
<path d="M6.92369 485.681H6.10352L490.987 0H491.808L6.92369 485.681Z" fill="#DDB764"/>
<path d="M13.4894 485.681H12.6692L497.553 0H498.373L13.4894 485.681Z" fill="#DDB764"/>
<path d="M20.0607 485.681H19.2405L504.12 0H504.94L20.0607 485.681Z" fill="#DDB764"/>
<path d="M26.6263 485.681H25.8062L510.686 0H511.506L26.6263 485.681Z" fill="#DDB764"/>
<path d="M33.1918 485.681H32.3716L517.251 0H518.072L33.1918 485.681Z" fill="#DDB764"/>
<path d="M39.7574 485.681H38.9373L523.817 0H524.637L39.7574 485.681Z" fill="#DDB764"/>
<path d="M46.3287 485.681H45.5085L530.385 0H531.205L46.3287 485.681Z" fill="#DDB764"/>
<path d="M52.8942 485.681H52.074L536.95 0H537.77L52.8942 485.681Z" fill="#DDB764"/>
<path d="M59.4598 485.681H58.6396L543.52 0H544.34L59.4598 485.681Z" fill="#DDB764"/>
<path d="M66.0203 485.681H65.2002L550.084 0H550.904L66.0203 485.681Z" fill="#DDB764"/>
<path d="M72.5911 485.681H71.771L556.651 0H557.471L72.5911 485.681Z" fill="#DDB764"/>
<path d="M79.1565 485.681H78.3364L563.216 0H564.037L79.1565 485.681Z" fill="#DDB764"/>
<path d="M85.723 485.681H84.9028L569.786 0H570.607L85.723 485.681Z" fill="#DDB764"/>
<path d="M92.2884 485.681H91.4683L576.352 0H577.172L92.2884 485.681Z" fill="#DDB764"/>
<path d="M98.8592 485.681H98.0391L582.917 0H583.735L98.8592 485.681Z" fill="#DDB764"/>
<path d="M105.425 485.681H104.604L589.483 0H590.301L105.425 485.681Z" fill="#DDB764"/>
<path d="M111.991 485.681H111.17L596.049 0H596.872L111.991 485.681Z" fill="#DDB764"/>
<path d="M118.556 485.681H117.736L602.614 0H603.438L118.556 485.681Z" fill="#DDB764"/>
<path d="M125.127 485.681H124.307L609.186 0H610.003L125.127 485.681Z" fill="#DDB764"/>
<path d="M131.687 485.681H130.867L615.745 0H616.569L131.687 485.681Z" fill="#DDB764"/>
<path d="M138.253 485.681H137.433L622.317 0H623.14L138.253 485.681Z" fill="#DDB764"/>
<path d="M144.819 485.681H143.999L628.883 0H629.706L144.819 485.681Z" fill="#DDB764"/>
</g>
</g>
<rect x="35" y="33" width="76" height="76" fill="#DDB764"/>
<path fill-rule="evenodd" clip-rule="evenodd" d="M61.1116 77.8888C66.3934 77.8888 70.6759 73.6063 70.6759 68.3244C70.6759 68.1031 70.6675 67.8847 70.6534 67.6672C68.1737 65.8991 66.4178 63.1841 65.9106 60.05C64.4997 59.2297 62.8609 58.76 61.1116 58.76C55.8297 58.76 51.5472 63.0425 51.5472 68.3244C51.5472 73.6063 55.8297 77.8888 61.1116 77.8888ZM55.2222 66.4053C55.2794 66.2291 55.4247 66.1091 55.6084 66.0866L59.1644 65.6394L60.6887 62.3956C60.7675 62.2278 60.9259 62.1275 61.1116 62.1275C61.2972 62.1275 61.4556 62.2278 61.5344 62.3956L63.0587 65.6394L66.6147 66.0866C66.7984 66.11 66.9437 66.2291 67.0009 66.4053C67.0581 66.5816 67.0112 66.7634 66.8762 66.89L64.2616 69.3416L64.9356 72.8619C64.9703 73.0438 64.9009 73.2191 64.7519 73.3278C64.6019 73.4366 64.4144 73.4488 64.2522 73.3588L61.1125 71.63L57.9728 73.3588C57.8106 73.4478 57.6231 73.4366 57.4731 73.3278C57.3231 73.2191 57.2537 73.0438 57.2884 72.8619L57.9625 69.3416L55.3478 66.89C55.2128 66.7634 55.1659 66.5816 55.2231 66.4053H55.2222ZM77.4062 68.3244C82.9947 68.3244 87.5528 63.7663 87.5528 58.1778C87.5528 52.5894 82.9947 48.0312 77.4062 48.0312C71.8178 48.0312 67.2597 52.5894 67.2597 58.1778C67.2597 63.7663 71.8178 68.3244 77.4062 68.3244ZM77.6116 52.5294C78.3034 51.7053 80.8356 50.885 80.0059 56.9844H81.0775C83.515 56.9225 83.6059 57.4466 83.7512 58.4234C83.8844 59.3159 83.2497 62.9431 82.5803 63.6406C81.6812 64.5397 78.1459 64.4769 76.8934 64.2491C76.0562 64.0963 75.6353 63.8338 74.665 63.7756L74.6547 57.5009C77.5478 57.0669 75.7066 54.7981 77.6116 52.5303V52.5294ZM71.0434 57.6022C71.0434 57.3228 71.2722 57.095 71.5506 57.095H73.0441C73.3234 57.095 73.5512 57.3238 73.5512 57.6022V63.7747C73.5512 64.0541 73.3225 64.2819 73.0441 64.2819H71.5506C71.2712 64.2819 71.0434 64.0531 71.0434 63.7747V57.6022ZM83.2881 77.6572H92.1662V66.6838H85.36C83.2778 68.6309 80.4812 69.8244 77.4062 69.8244V77.6572H80.4822V81.1025L83.2881 77.6572ZM88.7116 71.0234C89.3453 71.0234 89.8581 71.5372 89.8581 72.17C89.8581 72.8028 89.3444 73.3166 88.7116 73.3166C88.0787 73.3166 87.565 72.8028 87.565 72.17C87.565 71.5372 88.0787 71.0234 88.7116 71.0234ZM84.7872 71.0234C85.4209 71.0234 85.9337 71.5372 85.9337 72.17C85.9337 72.8028 85.42 73.3166 84.7872 73.3166C84.1544 73.3166 83.6406 72.8028 83.6406 72.17C83.6406 71.5372 84.1544 71.0234 84.7872 71.0234ZM79.7153 72.17C79.7153 71.5363 80.2291 71.0234 80.8619 71.0234C81.4947 71.0234 82.0084 71.5372 82.0084 72.17C82.0084 72.8028 81.4947 73.3166 80.8619 73.3166C80.2291 73.3166 79.7153 72.8028 79.7153 72.17ZM95.9678 82.2584C94.6909 83.9994 90.4928 86.3994 88.5034 87.4841C78.385 93.0003 73.0675 95.8494 60.0381 92.5897C59.4887 92.4528 58.7453 92.3066 57.6072 92.1988V80.5813C62.5731 79.2519 64.3862 80.0919 67.195 80.6384C69.9372 81.1719 73.0291 81.2384 75.8134 81.2647C77.98 81.2853 78.9606 82.1169 79.0506 83.3375C79.0994 83.9994 78.9166 84.5478 78.5612 85.0016C78.2678 85.3484 77.8319 85.6306 77.3031 85.8584C76.21 86.33 74.755 86.5691 73.2925 86.6769C71.2872 86.825 69.2762 86.7247 68.1212 86.6366C67.7537 86.6094 67.4331 86.885 67.4059 87.2525C67.3787 87.62 67.6544 87.9406 68.0219 87.9678C69.2162 88.0597 71.2975 88.1628 73.3862 88.0081C74.9809 87.89 76.585 87.6219 77.83 87.0847C79.1669 86.5081 80.1091 85.6278 80.2778 84.3116L91.0722 79.9766C93.4881 79.0109 96.0344 79.6494 95.9669 82.2594L95.9678 82.2584ZM56.1072 80.1012V92.5138C56.1072 93.1344 55.5991 93.6425 54.9784 93.6425H51.16C50.5394 93.6425 50.0312 93.1344 50.0312 92.5138V80.1012C50.0312 79.4806 50.5394 78.9725 51.16 78.9725H54.9794C55.6 78.9725 56.1081 79.4806 56.1081 80.1012H56.1072Z" fill="#45556E"/>
<defs>
<clipPath id="clip0_3_1726">
<rect width="145" height="141.754" fill="white"/>
</clipPath>
</defs>
</svg>
