<svg width="145" height="142" viewBox="0 0 145 142" fill="none" xmlns="http://www.w3.org/2000/svg">
<g clip-path="url(#clip0_9_6)">
<mask id="mask0_9_6" style="mask-type:luminance" maskUnits="userSpaceOnUse" x="0" y="0" width="145" height="142">
<path d="M145 0H0V141.754H145V0Z" fill="white"/>
</mask>
<g mask="url(#mask0_9_6)">
<path d="M0 5.07556L5.06723 0H5.88746L0 5.89713V5.07556Z" fill="#DDB764"/>
<path d="M0 12.4755V11.654L11.6346 0H12.4548L0 12.4755Z" fill="#DDB764"/>
<path d="M0 19.052V18.2304L18.2002 0H19.0204L0 19.052Z" fill="#DDB764"/>
<path d="M0 25.6304V24.8088L24.7679 0H25.5881L0 25.6304Z" fill="#DDB764"/>
<path d="M0 32.2067V31.3852L31.3334 0H32.1536L0 32.2067Z" fill="#DDB764"/>
<path d="M0 38.7872V37.9657L37.9028 0H38.7229L0 38.7872Z" fill="#DDB764"/>
<path d="M0 45.3596V44.5381L44.4647 0H45.2848L0 45.3596Z" fill="#DDB764"/>
<path d="M0 51.9378V51.1162L51.0323 0H51.8526L0 51.9378Z" fill="#DDB764"/>
<path d="M0 58.5141V57.6927L57.5981 0H58.4182L0 58.5141Z" fill="#DDB764"/>
<path d="M0 65.0946V64.2731L64.1671 0H64.9873L0 65.0946Z" fill="#DDB764"/>
<path d="M0 71.671V70.8496L70.7327 0H71.5528L0 71.671Z" fill="#DDB764"/>
<path d="M0 78.2475V77.426L77.2983 0H78.1185L0 78.2475Z" fill="#DDB764"/>
<path d="M0 84.8239V84.0025L83.8639 0H84.6841L0 84.8239Z" fill="#DDB764"/>
<path d="M0 91.405V90.5829L90.433 0H91.2531L0 91.405Z" fill="#DDB764"/>
<path d="M0 97.9814V97.16L96.9986 0H97.8187L0 97.9814Z" fill="#DDB764"/>
<path d="M0 104.559V103.738L103.567 0H104.387L0 104.559Z" fill="#DDB764"/>
<path d="M0 111.131V110.31L110.129 0H110.949L0 111.131Z" fill="#DDB764"/>
<path d="M0 117.712V116.89L116.698 0H117.518L0 117.712Z" fill="#DDB764"/>
<path d="M0 124.288V123.467L123.263 0H124.083L0 124.288Z" fill="#DDB764"/>
<path d="M0 130.867V130.045L129.831 0H130.652L0 130.867Z" fill="#DDB764"/>
<path d="M0 137.443V136.622L136.397 0H137.218L0 137.443Z" fill="#DDB764"/>
<path d="M0 144.022V143.201L142.964 0H143.784L0 144.022Z" fill="#DDB764"/>
<path d="M0 150.599V149.777L149.529 0H150.349L0 150.599Z" fill="#DDB764"/>
<path d="M0 157.176V156.355L156.097 0H156.917L0 157.176Z" fill="#DDB764"/>
<path d="M0 163.753V162.931L162.663 0H163.483L0 163.753Z" fill="#DDB764"/>
<path d="M0 170.329V169.508L169.228 0H170.048L0 170.329Z" fill="#DDB764"/>
<path d="M0 176.906V176.084L175.794 0H176.614L0 176.906Z" fill="#DDB764"/>
<path d="M0 183.483V182.662L182.362 0H183.183L0 183.483Z" fill="#DDB764"/>
<path d="M0 190.06V189.238L188.928 0H189.748L0 190.06Z" fill="#DDB764"/>
<path d="M0 196.641V195.819L195.497 0H196.317L0 196.641Z" fill="#DDB764"/>
<path d="M0 203.216V202.395L202.059 0H202.88L0 203.216Z" fill="#DDB764"/>
<path d="M0 209.794V208.972L208.628 0H209.448L0 209.794Z" fill="#DDB764"/>
<path d="M0 216.37V215.549L215.193 0H216.013L0 216.37Z" fill="#DDB764"/>
<path d="M0 222.952V222.13L221.762 0H222.582L0 222.952Z" fill="#DDB764"/>
<path d="M0 229.528V228.706L228.327 0H229.148L0 229.528Z" fill="#DDB764"/>
<path d="M0 236.101V235.279L234.893 0H235.713L0 236.101Z" fill="#DDB764"/>
<path d="M0 242.677V241.856L241.459 0H242.279L0 242.677Z" fill="#DDB764"/>
<path d="M0 249.258V248.437L248.027 0H248.847L0 249.258Z" fill="#DDB764"/>
<path d="M0 255.835V255.013L254.593 0H255.413L0 255.835Z" fill="#DDB764"/>
<path d="M0 262.412V261.591L261.161 0H261.981L0 262.412Z" fill="#DDB764"/>
<path d="M0 268.988V268.166L267.724 0H268.544L0 268.988Z" fill="#DDB764"/>
<path d="M0 275.569V274.748L274.292 0H275.113L0 275.569Z" fill="#DDB764"/>
<path d="M0 282.146V281.324L280.858 0H281.678L0 282.146Z" fill="#DDB764"/>
<path d="M0 288.723V287.901L287.427 0H288.247L0 288.723Z" fill="#DDB764"/>
<path d="M0 295.299V294.478L293.992 0H294.812L0 295.299Z" fill="#DDB764"/>
<path d="M0 301.876V301.054L300.558 0H301.378L0 301.876Z" fill="#DDB764"/>
<path d="M0 308.452V307.63L307.123 0H307.944L0 308.452Z" fill="#DDB764"/>
<path d="M0 315.029V314.208L313.692 0H314.513L0 315.029Z" fill="#DDB764"/>
<path d="M0 321.606V320.784L320.258 0H321.078L0 321.606Z" fill="#DDB764"/>
<path d="M0 328.187V327.365L326.823 0H327.643L0 328.187Z" fill="#DDB764"/>
<path d="M0 334.764V333.942L333.392 0H334.212L0 334.764Z" fill="#DDB764"/>
<path d="M0 341.34V340.519L339.957 0H340.777L0 341.34Z" fill="#DDB764"/>
<path d="M0 347.917V347.095L346.523 0H347.343L0 347.917Z" fill="#DDB764"/>
<path d="M0 354.498V353.677L353.091 0H353.911L0 354.498Z" fill="#DDB764"/>
<path d="M0 361.07V360.248L359.657 0H360.478L0 361.07Z" fill="#DDB764"/>
<path d="M0 367.646V366.825L366.223 0H367.043L0 367.646Z" fill="#DDB764"/>
<path d="M0 374.223V373.401L372.789 0H373.609L0 374.223Z" fill="#DDB764"/>
<path d="M0 380.805V379.983L379.357 0H380.177L0 380.805Z" fill="#DDB764"/>
<path d="M0 387.382V386.56L385.926 0H386.746L0 387.382Z" fill="#DDB764"/>
<path d="M0 393.957V393.136L392.488 0H393.308L0 393.957Z" fill="#DDB764"/>
<path d="M0 400.534V399.712L399.053 0H399.873L0 400.534Z" fill="#DDB764"/>
<path d="M0 407.116V406.295L405.621 0H406.441L0 407.116Z" fill="#DDB764"/>
<path d="M0 413.693V412.871L412.19 0H413.01L0 413.693Z" fill="#DDB764"/>
<path d="M0 420.269V419.448L418.756 0H419.576L0 420.269Z" fill="#DDB764"/>
<path d="M0 426.84V426.019L425.319 0H426.14L0 426.84Z" fill="#DDB764"/>
<path d="M0 433.422V432.6L431.887 0H432.707L0 433.422Z" fill="#DDB764"/>
<path d="M0 439.999V439.177L438.457 0H439.277L0 439.999Z" fill="#DDB764"/>
<path d="M0 446.575V445.753L445.022 0H445.843L0 446.575Z" fill="#DDB764"/>
<path d="M0 453.157V452.336L451.59 0H452.41L0 453.157Z" fill="#DDB764"/>
<path d="M0 459.733V458.912L458.152 0H458.972L0 459.733Z" fill="#DDB764"/>
<path d="M0 466.31V465.488L464.721 0H465.541L0 466.31Z" fill="#DDB764"/>
<path d="M0 472.886V472.065L471.287 0H472.107L0 472.886Z" fill="#DDB764"/>
<path d="M0 479.469V478.647L477.855 0H478.675L0 479.469Z" fill="#DDB764"/>
<path d="M0.363839 485.681H0V485.224L484.419 0H485.24L0.363839 485.681Z" fill="#DDB764"/>
<path d="M6.92369 485.681H6.10352L490.987 0H491.808L6.92369 485.681Z" fill="#DDB764"/>
<path d="M13.4891 485.681H12.6689L497.553 0H498.373L13.4891 485.681Z" fill="#DDB764"/>
<path d="M20.0604 485.681H19.2402L504.12 0H504.94L20.0604 485.681Z" fill="#DDB764"/>
<path d="M26.6263 485.681H25.8062L510.686 0H511.506L26.6263 485.681Z" fill="#DDB764"/>
<path d="M33.1918 485.681H32.3716L517.251 0H518.072L33.1918 485.681Z" fill="#DDB764"/>
<path d="M39.7577 485.681H38.9375L523.817 0H524.638L39.7577 485.681Z" fill="#DDB764"/>
<path d="M46.3285 485.681H45.5083L530.384 0H531.204L46.3285 485.681Z" fill="#DDB764"/>
<path d="M52.8944 485.681H52.0742L536.95 0H537.77L52.8944 485.681Z" fill="#DDB764"/>
<path d="M59.4598 485.681H58.6396L543.52 0H544.34L59.4598 485.681Z" fill="#DDB764"/>
<path d="M66.0203 485.681H65.2002L550.084 0H550.904L66.0203 485.681Z" fill="#DDB764"/>
<path d="M72.5911 485.681H71.771L556.651 0H557.471L72.5911 485.681Z" fill="#DDB764"/>
<path d="M79.1565 485.681H78.3364L563.216 0H564.037L79.1565 485.681Z" fill="#DDB764"/>
<path d="M85.723 485.681H84.9028L569.786 0H570.607L85.723 485.681Z" fill="#DDB764"/>
<path d="M92.2884 485.681H91.4683L576.352 0H577.172L92.2884 485.681Z" fill="#DDB764"/>
<path d="M98.8592 485.681H98.0391L582.917 0H583.735L98.8592 485.681Z" fill="#DDB764"/>
<path d="M105.425 485.681H104.604L589.483 0H590.301L105.425 485.681Z" fill="#DDB764"/>
<path d="M111.991 485.681H111.17L596.049 0H596.872L111.991 485.681Z" fill="#DDB764"/>
<path d="M118.556 485.681H117.736L602.614 0H603.438L118.556 485.681Z" fill="#DDB764"/>
<path d="M125.127 485.681H124.307L609.185 0H610.003L125.127 485.681Z" fill="#DDB764"/>
<path d="M131.687 485.681H130.867L615.745 0H616.569L131.687 485.681Z" fill="#DDB764"/>
<path d="M138.253 485.681H137.433L622.317 0H623.14L138.253 485.681Z" fill="#DDB764"/>
<path d="M144.819 485.681H143.999L628.883 0H629.706L144.819 485.681Z" fill="#DDB764"/>
</g>
</g>
<rect x="35" y="32.6179" width="76" height="76" fill="#DDB764"/>
<path d="M74.1562 62.6648H70.8438C69.526 62.6648 68.2621 63.1883 67.3303 64.1201C66.3985 65.0519 65.875 66.3158 65.875 67.6335V75.0867C65.875 75.7456 66.1367 76.3775 66.6027 76.8434C67.0686 77.3093 67.7005 77.571 68.3594 77.571H69.1875V89.1648H75.8125V77.571H76.6406C77.2995 77.571 77.9314 77.3093 78.3973 76.8434C78.8633 76.3775 79.125 75.7456 79.125 75.0867V67.6335C79.125 66.3158 78.6015 65.0519 77.6697 64.1201C76.7379 63.1883 75.474 62.6648 74.1562 62.6648Z" fill="#45556E"/>
<path d="M72.5 61.8367C74.7868 61.8367 76.6406 59.9828 76.6406 57.696C76.6406 55.4092 74.7868 53.5554 72.5 53.5554C70.2132 53.5554 68.3594 55.4092 68.3594 57.696C68.3594 59.9828 70.2132 61.8367 72.5 61.8367Z" fill="#45556E"/>
<path d="M88.2341 66.8054V74.2586C88.2341 74.9175 87.9724 75.5494 87.5065 76.0153C87.0406 76.4812 86.4087 76.7429 85.7498 76.7429H84.9216V88.3367H78.2966V78.8795C79.0338 78.5562 79.6611 78.0255 80.1022 77.3521C80.5433 76.6788 80.7791 75.8917 80.781 75.0867V67.6336C80.7806 66.5773 80.527 65.5366 80.0414 64.5986C79.5558 63.6605 78.8524 62.8526 77.9902 62.2425C78.6092 61.9726 79.2776 61.8344 79.9529 61.8367H83.2654C84.5832 61.8367 85.847 62.3602 86.7788 63.292C87.7106 64.2238 88.2341 65.4877 88.2341 66.8054Z" fill="#45556E"/>
<path d="M81.6094 61.0085C83.8962 61.0085 85.75 59.1547 85.75 56.8679C85.75 54.5811 83.8962 52.7273 81.6094 52.7273C79.3226 52.7273 77.4688 54.5811 77.4688 56.8679C77.4688 59.1547 79.3226 61.0085 81.6094 61.0085Z" fill="#45556E"/>
<path d="M97.3438 65.1491V72.6022C97.3438 73.2611 97.082 73.8931 96.6161 74.359C96.1502 74.8249 95.5183 75.0866 94.8594 75.0866H94.0313V86.6804H87.4063V78.0513C88.1435 77.728 88.7708 77.1973 89.2119 76.5239C89.6529 75.8505 89.8888 75.0635 89.8907 74.2585V66.8054C89.8907 65.6061 89.5647 64.4294 88.9477 63.4011C88.3307 62.3728 87.4458 61.5314 86.3877 60.9671C87.1831 60.4488 88.1132 60.1753 89.0625 60.1804H92.375C93.6928 60.1804 94.9567 60.7039 95.8885 61.6357C96.8203 62.5675 97.3438 63.8313 97.3438 65.1491Z" fill="#45556E"/>
<path d="M90.7188 59.3523C93.0056 59.3523 94.8594 57.4985 94.8594 55.2117C94.8594 52.9249 93.0056 51.071 90.7188 51.071C88.4319 51.071 86.5781 52.9249 86.5781 55.2117C86.5781 57.4985 88.4319 59.3523 90.7188 59.3523Z" fill="#45556E"/>
<path d="M66.7031 78.8795V88.3367H60.0781V76.7429H59.25C58.5911 76.7429 57.9592 76.4812 57.4933 76.0153C57.0274 75.5494 56.7656 74.9175 56.7656 74.2586V66.8054C56.7656 65.4877 57.2891 64.2238 58.2209 63.292C59.1528 62.3602 60.4166 61.8367 61.7344 61.8367H65.0469C65.7222 61.8344 66.3905 61.9726 67.0095 62.2425C66.1473 62.8526 65.444 63.6605 64.9584 64.5986C64.4728 65.5366 64.2192 66.5773 64.2188 67.6336V75.0867C64.2206 75.8917 64.4565 76.6788 64.8975 77.3521C65.3386 78.0255 65.9659 78.5562 66.7031 78.8795Z" fill="#45556E"/>
<path d="M63.3906 61.0085C65.6774 61.0085 67.5312 59.1547 67.5312 56.8679C67.5312 54.5811 65.6774 52.7273 63.3906 52.7273C61.1038 52.7273 59.25 54.5811 59.25 56.8679C59.25 59.1547 61.1038 61.0085 63.3906 61.0085Z" fill="#45556E"/>
<path d="M57.5938 78.0513V86.6804H50.9688V75.0866H50.1406C49.4817 75.0866 48.8498 74.8249 48.3839 74.359C47.918 73.8931 47.6562 73.2611 47.6562 72.6022V65.1491C47.6562 63.8313 48.1797 62.5675 49.1116 61.6357C50.0434 60.7039 51.3072 60.1804 52.625 60.1804H55.9375C56.8869 60.1753 57.8169 60.4488 58.6123 60.9671C57.5542 61.5314 56.6693 62.3728 56.0523 63.4011C55.4353 64.4294 55.1094 65.6061 55.1094 66.8054V74.2585C55.1113 75.0635 55.3471 75.8505 55.7882 76.5239C56.2293 77.1973 56.8566 77.728 57.5938 78.0513Z" fill="#45556E"/>
<path d="M54.2812 59.3523C56.5681 59.3523 58.4219 57.4985 58.4219 55.2117C58.4219 52.9249 56.5681 51.071 54.2812 51.071C51.9944 51.071 50.1406 52.9249 50.1406 55.2117C50.1406 57.4985 51.9944 59.3523 54.2812 59.3523Z" fill="#45556E"/>
<defs>
<clipPath id="clip0_9_6">
<rect width="145" height="141.754" fill="white"/>
</clipPath>
</defs>
</svg>
