<svg width="145" height="142" viewBox="0 0 145 142" fill="none" xmlns="http://www.w3.org/2000/svg">
<g clip-path="url(#clip0_9_9)">
<mask id="mask0_9_9" style="mask-type:luminance" maskUnits="userSpaceOnUse" x="0" y="0" width="145" height="142">
<path d="M145 0H0V141.754H145V0Z" fill="white"/>
</mask>
<g mask="url(#mask0_9_9)">
<path d="M0 5.07556L5.06723 0H5.88746L0 5.89713V5.07556Z" fill="#DDB764"/>
<path d="M0 12.4755V11.654L11.6346 0H12.4548L0 12.4755Z" fill="#DDB764"/>
<path d="M0 19.052V18.2304L18.2002 0H19.0204L0 19.052Z" fill="#DDB764"/>
<path d="M0 25.6304V24.8088L24.7679 0H25.5881L0 25.6304Z" fill="#DDB764"/>
<path d="M0 32.2067V31.3852L31.3334 0H32.1536L0 32.2067Z" fill="#DDB764"/>
<path d="M0 38.7872V37.9657L37.9028 0H38.7229L0 38.7872Z" fill="#DDB764"/>
<path d="M0 45.3596V44.5381L44.4647 0H45.2848L0 45.3596Z" fill="#DDB764"/>
<path d="M0 51.9378V51.1162L51.0323 0H51.8526L0 51.9378Z" fill="#DDB764"/>
<path d="M0 58.5141V57.6927L57.5981 0H58.4182L0 58.5141Z" fill="#DDB764"/>
<path d="M0 65.0946V64.2731L64.1671 0H64.9873L0 65.0946Z" fill="#DDB764"/>
<path d="M0 71.671V70.8496L70.7327 0H71.5528L0 71.671Z" fill="#DDB764"/>
<path d="M0 78.2475V77.426L77.2983 0H78.1185L0 78.2475Z" fill="#DDB764"/>
<path d="M0 84.8239V84.0025L83.8639 0H84.6841L0 84.8239Z" fill="#DDB764"/>
<path d="M0 91.405V90.5829L90.433 0H91.2531L0 91.405Z" fill="#DDB764"/>
<path d="M0 97.9814V97.16L96.9986 0H97.8187L0 97.9814Z" fill="#DDB764"/>
<path d="M0 104.559V103.738L103.567 0H104.387L0 104.559Z" fill="#DDB764"/>
<path d="M0 111.131V110.31L110.129 0H110.949L0 111.131Z" fill="#DDB764"/>
<path d="M0 117.712V116.89L116.698 0H117.518L0 117.712Z" fill="#DDB764"/>
<path d="M0 124.288V123.467L123.263 0H124.083L0 124.288Z" fill="#DDB764"/>
<path d="M0 130.867V130.045L129.831 0H130.652L0 130.867Z" fill="#DDB764"/>
<path d="M0 137.443V136.622L136.397 0H137.218L0 137.443Z" fill="#DDB764"/>
<path d="M0 144.022V143.201L142.964 0H143.784L0 144.022Z" fill="#DDB764"/>
<path d="M0 150.599V149.777L149.529 0H150.349L0 150.599Z" fill="#DDB764"/>
<path d="M0 157.176V156.355L156.097 0H156.917L0 157.176Z" fill="#DDB764"/>
<path d="M0 163.753V162.931L162.663 0H163.483L0 163.753Z" fill="#DDB764"/>
<path d="M0 170.329V169.508L169.228 0H170.048L0 170.329Z" fill="#DDB764"/>
<path d="M0 176.906V176.084L175.794 0H176.614L0 176.906Z" fill="#DDB764"/>
<path d="M0 183.483V182.662L182.362 0H183.183L0 183.483Z" fill="#DDB764"/>
<path d="M0 190.06V189.238L188.928 0H189.748L0 190.06Z" fill="#DDB764"/>
<path d="M0 196.641V195.819L195.497 0H196.317L0 196.641Z" fill="#DDB764"/>
<path d="M0 203.216V202.395L202.059 0H202.88L0 203.216Z" fill="#DDB764"/>
<path d="M0 209.794V208.972L208.628 0H209.448L0 209.794Z" fill="#DDB764"/>
<path d="M0 216.37V215.549L215.193 0H216.013L0 216.37Z" fill="#DDB764"/>
<path d="M0 222.952V222.13L221.762 0H222.582L0 222.952Z" fill="#DDB764"/>
<path d="M0 229.528V228.706L228.327 0H229.148L0 229.528Z" fill="#DDB764"/>
<path d="M0 236.101V235.279L234.893 0H235.713L0 236.101Z" fill="#DDB764"/>
<path d="M0 242.677V241.856L241.459 0H242.279L0 242.677Z" fill="#DDB764"/>
<path d="M0 249.258V248.437L248.027 0H248.847L0 249.258Z" fill="#DDB764"/>
<path d="M0 255.835V255.013L254.593 0H255.413L0 255.835Z" fill="#DDB764"/>
<path d="M0 262.412V261.591L261.161 0H261.981L0 262.412Z" fill="#DDB764"/>
<path d="M0 268.988V268.166L267.724 0H268.544L0 268.988Z" fill="#DDB764"/>
<path d="M0 275.569V274.748L274.292 0H275.113L0 275.569Z" fill="#DDB764"/>
<path d="M0 282.146V281.324L280.858 0H281.678L0 282.146Z" fill="#DDB764"/>
<path d="M0 288.723V287.901L287.427 0H288.247L0 288.723Z" fill="#DDB764"/>
<path d="M0 295.299V294.478L293.992 0H294.812L0 295.299Z" fill="#DDB764"/>
<path d="M0 301.876V301.054L300.558 0H301.378L0 301.876Z" fill="#DDB764"/>
<path d="M0 308.452V307.63L307.123 0H307.944L0 308.452Z" fill="#DDB764"/>
<path d="M0 315.029V314.208L313.692 0H314.513L0 315.029Z" fill="#DDB764"/>
<path d="M0 321.606V320.784L320.258 0H321.078L0 321.606Z" fill="#DDB764"/>
<path d="M0 328.187V327.365L326.823 0H327.643L0 328.187Z" fill="#DDB764"/>
<path d="M0 334.764V333.942L333.392 0H334.212L0 334.764Z" fill="#DDB764"/>
<path d="M0 341.34V340.519L339.957 0H340.777L0 341.34Z" fill="#DDB764"/>
<path d="M0 347.917V347.095L346.523 0H347.343L0 347.917Z" fill="#DDB764"/>
<path d="M0 354.498V353.677L353.091 0H353.911L0 354.498Z" fill="#DDB764"/>
<path d="M0 361.07V360.248L359.657 0H360.478L0 361.07Z" fill="#DDB764"/>
<path d="M0 367.646V366.825L366.223 0H367.043L0 367.646Z" fill="#DDB764"/>
<path d="M0 374.223V373.401L372.789 0H373.609L0 374.223Z" fill="#DDB764"/>
<path d="M0 380.805V379.983L379.357 0H380.177L0 380.805Z" fill="#DDB764"/>
<path d="M0 387.382V386.56L385.926 0H386.746L0 387.382Z" fill="#DDB764"/>
<path d="M0 393.957V393.136L392.488 0H393.308L0 393.957Z" fill="#DDB764"/>
<path d="M0 400.534V399.712L399.053 0H399.873L0 400.534Z" fill="#DDB764"/>
<path d="M0 407.116V406.295L405.621 0H406.441L0 407.116Z" fill="#DDB764"/>
<path d="M0 413.693V412.871L412.19 0H413.01L0 413.693Z" fill="#DDB764"/>
<path d="M0 420.269V419.448L418.756 0H419.576L0 420.269Z" fill="#DDB764"/>
<path d="M0 426.84V426.019L425.319 0H426.14L0 426.84Z" fill="#DDB764"/>
<path d="M0 433.422V432.6L431.887 0H432.707L0 433.422Z" fill="#DDB764"/>
<path d="M0 439.999V439.177L438.457 0H439.277L0 439.999Z" fill="#DDB764"/>
<path d="M0 446.575V445.753L445.022 0H445.843L0 446.575Z" fill="#DDB764"/>
<path d="M0 453.157V452.336L451.59 0H452.41L0 453.157Z" fill="#DDB764"/>
<path d="M0 459.733V458.912L458.152 0H458.972L0 459.733Z" fill="#DDB764"/>
<path d="M0 466.31V465.488L464.721 0H465.541L0 466.31Z" fill="#DDB764"/>
<path d="M0 472.886V472.065L471.287 0H472.107L0 472.886Z" fill="#DDB764"/>
<path d="M0 479.469V478.647L477.855 0H478.675L0 479.469Z" fill="#DDB764"/>
<path d="M0.363839 485.681H0V485.224L484.419 0H485.24L0.363839 485.681Z" fill="#DDB764"/>
<path d="M6.92369 485.681H6.10352L490.987 0H491.808L6.92369 485.681Z" fill="#DDB764"/>
<path d="M13.4894 485.681H12.6692L497.553 0H498.373L13.4894 485.681Z" fill="#DDB764"/>
<path d="M20.0607 485.681H19.2405L504.12 0H504.94L20.0607 485.681Z" fill="#DDB764"/>
<path d="M26.6263 485.681H25.8062L510.686 0H511.506L26.6263 485.681Z" fill="#DDB764"/>
<path d="M33.1918 485.681H32.3716L517.251 0H518.072L33.1918 485.681Z" fill="#DDB764"/>
<path d="M39.7574 485.681H38.9373L523.817 0H524.637L39.7574 485.681Z" fill="#DDB764"/>
<path d="M46.3287 485.681H45.5085L530.385 0H531.205L46.3287 485.681Z" fill="#DDB764"/>
<path d="M52.8942 485.681H52.074L536.95 0H537.77L52.8942 485.681Z" fill="#DDB764"/>
<path d="M59.4598 485.681H58.6396L543.52 0H544.34L59.4598 485.681Z" fill="#DDB764"/>
<path d="M66.0203 485.681H65.2002L550.084 0H550.904L66.0203 485.681Z" fill="#DDB764"/>
<path d="M72.5911 485.681H71.771L556.651 0H557.471L72.5911 485.681Z" fill="#DDB764"/>
<path d="M79.1565 485.681H78.3364L563.216 0H564.037L79.1565 485.681Z" fill="#DDB764"/>
<path d="M85.723 485.681H84.9028L569.786 0H570.607L85.723 485.681Z" fill="#DDB764"/>
<path d="M92.2884 485.681H91.4683L576.352 0H577.172L92.2884 485.681Z" fill="#DDB764"/>
<path d="M98.8592 485.681H98.0391L582.917 0H583.735L98.8592 485.681Z" fill="#DDB764"/>
<path d="M105.425 485.681H104.604L589.483 0H590.301L105.425 485.681Z" fill="#DDB764"/>
<path d="M111.991 485.681H111.17L596.049 0H596.872L111.991 485.681Z" fill="#DDB764"/>
<path d="M118.556 485.681H117.736L602.614 0H603.438L118.556 485.681Z" fill="#DDB764"/>
<path d="M125.127 485.681H124.307L609.186 0H610.003L125.127 485.681Z" fill="#DDB764"/>
<path d="M131.687 485.681H130.867L615.745 0H616.569L131.687 485.681Z" fill="#DDB764"/>
<path d="M138.253 485.681H137.433L622.317 0H623.14L138.253 485.681Z" fill="#DDB764"/>
<path d="M144.819 485.681H143.999L628.883 0H629.706L144.819 485.681Z" fill="#DDB764"/>
</g>
</g>
<rect x="35" y="33" width="76" height="76" fill="#DDB764"/>
<path d="M93.4984 83.55C93.3496 83.4448 87.5225 70.7798 87.1928 70.2166C87.2883 69.9158 87.3048 69.5956 87.2407 69.2866C87.1766 68.9777 87.0342 68.6904 86.827 68.4524C84.5397 66.4286 78.9642 71.6582 76.7588 73.6599C75.7875 74.6915 69.0584 80.8918 71.1287 83.4937C71.3544 83.706 71.6306 83.8572 71.9312 83.9328C72.2318 84.0083 72.5467 84.0057 72.846 83.9253L81.5161 88.4856L77.3123 92.5203C77.0854 92.7321 76.9036 92.9876 76.7779 93.2714C76.6521 93.5552 76.585 93.8614 76.5805 94.1718C76.6089 94.6333 76.7388 95.0829 76.961 95.4884C77.1833 95.8939 77.4923 96.2453 77.866 96.5176C78.081 96.7426 78.3381 96.9231 78.6228 97.0487C78.9076 97.1742 79.2142 97.2425 79.5253 97.2494C79.8364 97.2564 80.1459 97.202 80.4359 97.0893C80.726 96.9766 80.991 96.8079 81.2158 96.5927L86.8457 91.1974C91.2865 92.7108 95.6118 87.7691 93.4984 83.55ZM72.6677 82.0675C72.6567 81.2354 74.5282 78.4294 78.0536 75.0113C81.6296 71.6111 84.4488 69.9654 85.3444 69.9067C84.8417 71.349 83.3416 73.5932 79.9022 76.9442C76.4299 80.193 74.1104 81.6511 72.6677 82.0675Z" fill="#45556E"/>
<path d="M78.0031 63.403C77.88 63.4077 77.759 63.4368 77.6471 63.4884C77.5352 63.5399 77.4346 63.6131 77.351 63.7036C77.2673 63.7941 77.2024 63.9002 77.1598 64.0158C77.1172 64.1315 77.0979 64.2543 77.1028 64.3775L77.2462 68.0153C77.2511 68.1384 77.2802 68.2593 77.3318 68.3712C77.3834 68.4831 77.4566 68.5837 77.547 68.6673C77.6375 68.7509 77.7436 68.8158 77.8592 68.8584C77.9748 68.901 78.0977 68.9205 78.2208 68.9156C78.3439 68.9107 78.4648 68.8816 78.5767 68.83C78.6885 68.7784 78.7891 68.7053 78.8727 68.6148C78.9563 68.5243 79.0213 68.4182 79.0639 68.3026C79.1065 68.187 79.1259 68.0642 79.1211 67.9411L78.9776 64.3032C78.9745 64.1796 78.9466 64.0578 78.8956 63.9451C78.8446 63.8324 78.7714 63.7311 78.6806 63.6472C78.5897 63.5632 78.483 63.4984 78.3666 63.4564C78.2502 63.4145 78.1266 63.3963 78.0031 63.403Z" fill="#45556E"/>
<path d="M67.4698 73.605C67.2241 73.5887 66.9818 73.6696 66.7953 73.8303C66.6087 73.991 66.4927 74.2185 66.4724 74.4639C66.4521 74.7093 66.5291 74.9529 66.6867 75.142C66.8443 75.3312 67.0699 75.4509 67.315 75.4752L70.9431 75.7748C71.1883 75.7903 71.4298 75.7089 71.6157 75.5483C71.8016 75.3876 71.9171 75.1605 71.9374 74.9156C71.9576 74.6707 71.8811 74.4277 71.7241 74.2387C71.5672 74.0496 71.3423 73.9297 71.0979 73.9046L67.4698 73.605Z" fill="#45556E"/>
<path d="M73.3247 71.4323C73.4982 71.6064 73.733 71.7056 73.9788 71.7084C74.2245 71.7113 74.4616 71.6176 74.6391 71.4476C74.8165 71.2776 74.9202 71.0447 74.9279 70.7991C74.9355 70.5534 74.8465 70.3146 74.6799 70.1338L72.5023 67.86C72.33 67.6809 72.0937 67.5775 71.8452 67.5725C71.5967 67.5674 71.3564 67.6611 71.1769 67.8331C70.9975 68.005 70.8935 68.2411 70.8879 68.4896C70.8823 68.738 70.9755 68.9786 71.1471 69.1584L73.3247 71.4323Z" fill="#45556E"/>
<path d="M60.8822 77.1224C58.5124 77.1254 56.2407 78.0688 54.5658 79.7454C52.891 81.422 51.95 83.6948 51.9495 86.0646C52.4392 97.9206 69.3389 97.9073 69.8245 86.0645C69.8234 83.6933 68.8809 81.4194 67.2042 79.7427C65.5274 78.0659 63.2535 77.1235 60.8822 77.1224ZM62.6745 84.3287V87.9319C62.6982 88.6791 62.4254 89.4053 61.9156 89.952C61.4057 90.4988 60.7003 90.8216 59.9533 90.8501H59.1464C58.5187 90.8106 57.9296 90.5335 57.499 90.075C57.0684 89.6166 56.8288 89.0112 56.8288 88.3823C56.8288 87.7533 57.0684 87.148 57.499 86.6896C57.9296 86.2311 58.5187 85.9539 59.1464 85.9145C59.3999 85.9135 59.6441 86.0107 59.8277 86.1855C60.0113 86.3604 60.1202 86.5995 60.1316 86.8528C60.1362 86.9741 60.1164 87.0951 60.0732 87.2086C60.0301 87.322 59.9645 87.4257 59.8805 87.5132C59.7964 87.6008 59.6955 87.6705 59.5839 87.7183C59.4723 87.766 59.3522 87.7908 59.2308 87.7911C58.9354 87.7528 58.709 88.0205 58.7054 88.3823C58.7054 88.7013 58.9024 88.9734 59.1464 88.9734H59.9533C60.2023 88.9447 60.4301 88.8196 60.588 88.6249C60.7458 88.4302 60.8212 88.1815 60.7978 87.9319V82.2081C60.8022 82.0264 60.8589 81.8499 60.9609 81.6995C61.063 81.5491 61.2061 81.4313 61.3733 81.36C61.5405 81.2888 61.7247 81.2672 61.9038 81.2978C62.083 81.3284 62.2495 81.4099 62.3836 81.5326C63.2674 82.3864 64.2078 83.1795 65.1986 83.9065C65.3373 83.9167 65.4719 83.9584 65.5922 84.0282C65.7125 84.0981 65.8153 84.1945 65.8929 84.31C65.9627 84.4116 66.0118 84.5259 66.0373 84.6465C66.0628 84.7671 66.0643 84.8916 66.0416 85.0127C66.0189 85.1339 65.9726 85.2494 65.9052 85.3526C65.8378 85.4558 65.7507 85.5447 65.6489 85.6142C65.1892 85.9333 64.8326 86.1773 62.6745 84.3287Z" fill="#45556E"/>
<path d="M60.8823 73.2754C63.2521 73.2749 65.5249 72.3339 67.2015 70.659C68.8781 68.9842 69.8215 66.7124 69.8245 64.3426C69.349 52.4869 52.4255 52.4804 51.9495 64.3426C51.9519 66.711 52.8939 68.9816 54.5686 70.6563C56.2433 72.331 58.5139 73.2729 60.8823 73.2754ZM57.7671 63.7795H59.2215V62.2032C59.2224 61.2852 59.5875 60.405 60.2366 59.7559C60.8857 59.1068 61.7659 58.7417 62.6839 58.7408C63.653 58.7183 65.4581 59.2835 64.8045 60.5424C64.674 60.7527 64.4659 60.9031 64.2252 60.961C63.9846 61.019 63.7309 60.9798 63.5189 60.852C63.2683 60.6965 62.9788 60.6152 62.6839 60.6174C62.4755 60.6171 62.2692 60.658 62.0767 60.7376C61.8842 60.8172 61.7093 60.934 61.562 61.0813C61.4147 61.2286 61.2979 61.4035 61.2183 61.596C61.1387 61.7885 61.0978 61.9948 61.0981 62.2032V63.7795H62.8715C63.1178 63.7834 63.3527 63.884 63.5254 64.0595C63.6982 64.2351 63.7951 64.4715 63.7951 64.7179C63.7951 64.9642 63.6982 65.2006 63.5254 65.3762C63.3527 65.5517 63.1178 65.6523 62.8715 65.6562H61.0981V69.006C61.0985 69.1294 61.0745 69.2518 61.0275 69.366C60.9806 69.4801 60.9115 69.5839 60.8243 69.6714C60.7372 69.7588 60.6336 69.8282 60.5196 69.8755C60.4055 69.9229 60.2833 69.9473 60.1598 69.9473C60.0363 69.9473 59.9141 69.9229 59.8 69.8755C59.686 69.8282 59.5824 69.7588 59.4952 69.6714C59.4081 69.5839 59.339 69.4801 59.292 69.366C59.2451 69.2518 59.2211 69.1294 59.2215 69.006V65.6562H57.7671C57.5208 65.6523 57.2859 65.5517 57.1131 65.3762C56.9403 65.2006 56.8435 64.9642 56.8435 64.7179C56.8435 64.4715 56.9403 64.2351 57.1131 64.0595C57.2859 63.884 57.5208 63.7834 57.7671 63.7795Z" fill="#45556E"/>
<path d="M80.5119 62.8412C82.9163 62.8374 85.2211 61.88 86.9204 60.1789C88.6197 58.4778 89.5748 56.1721 89.576 53.7676C89.0827 41.7376 71.9333 41.7506 71.4382 53.7677C71.4416 56.1731 72.3987 58.479 74.0996 60.1799C75.8005 61.8808 78.1064 62.8378 80.5119 62.8412ZM75.4731 51.1497C75.4725 50.5091 75.7261 49.8945 76.1782 49.4406C76.6303 48.9868 77.2439 48.7308 77.8845 48.7289H83.1298C83.7713 48.7304 84.3862 48.986 84.8398 49.4396C85.2935 49.8933 85.5491 50.5082 85.5506 51.1497V56.3949C85.5487 57.0355 85.2927 57.6492 84.8389 58.1013C84.385 58.5534 83.7704 58.807 83.1298 58.8064H77.8845C77.5678 58.8065 77.2542 58.7442 76.9616 58.6231C76.669 58.5019 76.4031 58.3243 76.1791 58.1003C75.9552 57.8764 75.7776 57.6105 75.6564 57.3179C75.5353 57.0253 75.473 56.7116 75.4731 56.3949V51.1497Z" fill="#45556E"/>
<path d="M77.8847 56.9297H83.1299C83.2009 56.9307 83.2714 56.9177 83.3372 56.8912C83.4031 56.8648 83.4631 56.8256 83.5137 56.7759C83.5643 56.7262 83.6045 56.6669 83.6321 56.6015C83.6596 56.5361 83.674 56.4659 83.6742 56.3949V51.1497C83.6741 51.0054 83.6167 50.867 83.5147 50.765C83.4126 50.663 83.2742 50.6056 83.1299 50.6055H77.8847C77.8137 50.6057 77.7435 50.62 77.6781 50.6476C77.6128 50.6751 77.5535 50.7154 77.5037 50.766C77.454 50.8166 77.4148 50.8766 77.3884 50.9424C77.362 51.0083 77.3489 51.0788 77.3499 51.1497V56.3949C77.3491 56.4654 77.3624 56.5353 77.389 56.6005C77.4155 56.6658 77.4549 56.7251 77.5047 56.7749C77.5545 56.8247 77.6138 56.8641 77.6791 56.8907C77.7443 56.9173 77.8142 56.9306 77.8847 56.9297ZM80.512 51.1966C81.1894 51.2054 81.836 51.4806 82.3119 51.9627C82.7878 52.4448 83.0546 53.0949 83.0546 53.7723C83.0546 54.4497 82.7877 55.0999 82.3118 55.582C81.8359 56.064 81.1893 56.3392 80.512 56.348C79.8346 56.3392 79.188 56.064 78.7121 55.5819C78.2362 55.0998 77.9694 54.4497 77.9694 53.7723C77.9694 53.0949 78.2363 52.4447 78.7122 51.9627C79.1881 51.4806 79.8347 51.2054 80.512 51.1966Z" fill="#45556E"/>
<path d="M80.5121 54.4713C80.6943 54.4666 80.8675 54.3908 80.9947 54.2602C81.1219 54.1296 81.1931 53.9546 81.193 53.7723C81.193 53.59 81.1218 53.4149 80.9946 53.2843C80.8674 53.1537 80.6943 53.078 80.512 53.0732C80.3298 53.078 80.1566 53.1538 80.0294 53.2843C79.9022 53.4149 79.831 53.59 79.8311 53.7723C79.8311 53.9546 79.9023 54.1297 80.0295 54.2603C80.1567 54.3908 80.3298 54.4666 80.5121 54.4713Z" fill="#45556E"/>
<defs>
<clipPath id="clip0_9_9">
<rect width="145" height="141.754" fill="white"/>
</clipPath>
</defs>
</svg>
