<svg width="145" height="142" viewBox="0 0 145 142" fill="none" xmlns="http://www.w3.org/2000/svg">
<g clip-path="url(#clip0_3_1936)">
<mask id="mask0_3_1936" style="mask-type:luminance" maskUnits="userSpaceOnUse" x="0" y="0" width="145" height="142">
<path d="M145 0H0V141.754H145V0Z" fill="white"/>
</mask>
<g mask="url(#mask0_3_1936)">
<path d="M0 5.07556L5.06723 0H5.88746L0 5.89713V5.07556Z" fill="#C5F381"/>
<path d="M0 12.4755V11.654L11.6346 0H12.4548L0 12.4755Z" fill="#C5F381"/>
<path d="M0 19.052V18.2304L18.2002 0H19.0204L0 19.052Z" fill="#C5F381"/>
<path d="M0 25.6304V24.8088L24.7679 0H25.5881L0 25.6304Z" fill="#C5F381"/>
<path d="M0 32.2067V31.3852L31.3334 0H32.1536L0 32.2067Z" fill="#C5F381"/>
<path d="M0 38.7872V37.9657L37.9028 0H38.7229L0 38.7872Z" fill="#C5F381"/>
<path d="M0 45.3596V44.5381L44.4647 0H45.2848L0 45.3596Z" fill="#C5F381"/>
<path d="M0 51.9378V51.1162L51.0323 0H51.8526L0 51.9378Z" fill="#C5F381"/>
<path d="M0 58.5141V57.6927L57.5981 0H58.4182L0 58.5141Z" fill="#C5F381"/>
<path d="M0 65.0946V64.2731L64.1671 0H64.9873L0 65.0946Z" fill="#C5F381"/>
<path d="M0 71.671V70.8496L70.7327 0H71.5528L0 71.671Z" fill="#C5F381"/>
<path d="M0 78.2475V77.426L77.2983 0H78.1185L0 78.2475Z" fill="#C5F381"/>
<path d="M0 84.8239V84.0025L83.8639 0H84.6841L0 84.8239Z" fill="#C5F381"/>
<path d="M0 91.405V90.5829L90.433 0H91.2531L0 91.405Z" fill="#C5F381"/>
<path d="M0 97.9814V97.16L96.9986 0H97.8187L0 97.9814Z" fill="#C5F381"/>
<path d="M0 104.559V103.738L103.567 0H104.387L0 104.559Z" fill="#C5F381"/>
<path d="M0 111.131V110.31L110.129 0H110.949L0 111.131Z" fill="#C5F381"/>
<path d="M0 117.712V116.89L116.698 0H117.518L0 117.712Z" fill="#C5F381"/>
<path d="M0 124.288V123.467L123.263 0H124.083L0 124.288Z" fill="#C5F381"/>
<path d="M0 130.867V130.045L129.831 0H130.652L0 130.867Z" fill="#C5F381"/>
<path d="M0 137.443V136.622L136.397 0H137.218L0 137.443Z" fill="#C5F381"/>
<path d="M0 144.022V143.201L142.964 0H143.784L0 144.022Z" fill="#C5F381"/>
<path d="M0 150.599V149.777L149.529 0H150.349L0 150.599Z" fill="#C5F381"/>
<path d="M0 157.176V156.355L156.097 0H156.917L0 157.176Z" fill="#C5F381"/>
<path d="M0 163.753V162.931L162.663 0H163.483L0 163.753Z" fill="#C5F381"/>
<path d="M0 170.329V169.508L169.228 0H170.048L0 170.329Z" fill="#C5F381"/>
<path d="M0 176.906V176.084L175.794 0H176.614L0 176.906Z" fill="#C5F381"/>
<path d="M0 183.483V182.662L182.362 0H183.183L0 183.483Z" fill="#C5F381"/>
<path d="M0 190.06V189.238L188.928 0H189.748L0 190.06Z" fill="#C5F381"/>
<path d="M0 196.641V195.819L195.497 0H196.317L0 196.641Z" fill="#C5F381"/>
<path d="M0 203.216V202.395L202.059 0H202.88L0 203.216Z" fill="#C5F381"/>
<path d="M0 209.794V208.972L208.628 0H209.448L0 209.794Z" fill="#C5F381"/>
<path d="M0 216.37V215.549L215.193 0H216.013L0 216.37Z" fill="#C5F381"/>
<path d="M0 222.952V222.13L221.762 0H222.582L0 222.952Z" fill="#C5F381"/>
<path d="M0 229.528V228.706L228.327 0H229.148L0 229.528Z" fill="#C5F381"/>
<path d="M0 236.101V235.279L234.893 0H235.713L0 236.101Z" fill="#C5F381"/>
<path d="M0 242.677V241.856L241.459 0H242.279L0 242.677Z" fill="#C5F381"/>
<path d="M0 249.258V248.437L248.027 0H248.847L0 249.258Z" fill="#C5F381"/>
<path d="M0 255.835V255.013L254.593 0H255.413L0 255.835Z" fill="#C5F381"/>
<path d="M0 262.412V261.591L261.161 0H261.981L0 262.412Z" fill="#C5F381"/>
<path d="M0 268.988V268.166L267.724 0H268.544L0 268.988Z" fill="#C5F381"/>
<path d="M0 275.569V274.748L274.292 0H275.113L0 275.569Z" fill="#C5F381"/>
<path d="M0 282.146V281.324L280.858 0H281.678L0 282.146Z" fill="#C5F381"/>
<path d="M0 288.723V287.901L287.427 0H288.247L0 288.723Z" fill="#C5F381"/>
<path d="M0 295.299V294.478L293.992 0H294.812L0 295.299Z" fill="#C5F381"/>
<path d="M0 301.876V301.054L300.558 0H301.378L0 301.876Z" fill="#C5F381"/>
<path d="M0 308.452V307.63L307.123 0H307.944L0 308.452Z" fill="#C5F381"/>
<path d="M0 315.029V314.208L313.692 0H314.513L0 315.029Z" fill="#C5F381"/>
<path d="M0 321.606V320.784L320.258 0H321.078L0 321.606Z" fill="#C5F381"/>
<path d="M0 328.187V327.365L326.823 0H327.643L0 328.187Z" fill="#C5F381"/>
<path d="M0 334.764V333.942L333.392 0H334.212L0 334.764Z" fill="#C5F381"/>
<path d="M0 341.34V340.519L339.957 0H340.777L0 341.34Z" fill="#C5F381"/>
<path d="M0 347.917V347.095L346.523 0H347.343L0 347.917Z" fill="#C5F381"/>
<path d="M0 354.498V353.677L353.091 0H353.911L0 354.498Z" fill="#C5F381"/>
<path d="M0 361.07V360.248L359.657 0H360.478L0 361.07Z" fill="#C5F381"/>
<path d="M0 367.646V366.825L366.223 0H367.043L0 367.646Z" fill="#C5F381"/>
<path d="M0 374.223V373.401L372.789 0H373.609L0 374.223Z" fill="#C5F381"/>
<path d="M0 380.805V379.983L379.357 0H380.177L0 380.805Z" fill="#C5F381"/>
<path d="M0 387.382V386.56L385.926 0H386.746L0 387.382Z" fill="#C5F381"/>
<path d="M0 393.957V393.136L392.488 0H393.308L0 393.957Z" fill="#C5F381"/>
<path d="M0 400.534V399.712L399.053 0H399.873L0 400.534Z" fill="#C5F381"/>
<path d="M0 407.116V406.295L405.621 0H406.441L0 407.116Z" fill="#C5F381"/>
<path d="M0 413.693V412.871L412.19 0H413.01L0 413.693Z" fill="#C5F381"/>
<path d="M0 420.269V419.448L418.756 0H419.576L0 420.269Z" fill="#C5F381"/>
<path d="M0 426.84V426.019L425.319 0H426.14L0 426.84Z" fill="#C5F381"/>
<path d="M0 433.422V432.6L431.887 0H432.707L0 433.422Z" fill="#C5F381"/>
<path d="M0 439.999V439.177L438.457 0H439.277L0 439.999Z" fill="#C5F381"/>
<path d="M0 446.575V445.753L445.022 0H445.843L0 446.575Z" fill="#C5F381"/>
<path d="M0 453.157V452.336L451.59 0H452.41L0 453.157Z" fill="#C5F381"/>
<path d="M0 459.733V458.912L458.152 0H458.972L0 459.733Z" fill="#C5F381"/>
<path d="M0 466.31V465.488L464.721 0H465.541L0 466.31Z" fill="#C5F381"/>
<path d="M0 472.886V472.065L471.287 0H472.107L0 472.886Z" fill="#C5F381"/>
<path d="M0 479.469V478.647L477.855 0H478.675L0 479.469Z" fill="#C5F381"/>
<path d="M0.363839 485.681H0V485.224L484.419 0H485.24L0.363839 485.681Z" fill="#C5F381"/>
<path d="M6.92369 485.681H6.10352L490.987 0H491.808L6.92369 485.681Z" fill="#C5F381"/>
<path d="M13.4891 485.681H12.6689L497.553 0H498.373L13.4891 485.681Z" fill="#C5F381"/>
<path d="M20.0604 485.681H19.2402L504.12 0H504.94L20.0604 485.681Z" fill="#C5F381"/>
<path d="M26.6263 485.681H25.8062L510.686 0H511.506L26.6263 485.681Z" fill="#C5F381"/>
<path d="M33.1918 485.681H32.3716L517.251 0H518.072L33.1918 485.681Z" fill="#C5F381"/>
<path d="M39.7577 485.681H38.9375L523.817 0H524.638L39.7577 485.681Z" fill="#C5F381"/>
<path d="M46.3285 485.681H45.5083L530.384 0H531.204L46.3285 485.681Z" fill="#C5F381"/>
<path d="M52.8944 485.681H52.0742L536.95 0H537.77L52.8944 485.681Z" fill="#C5F381"/>
<path d="M59.4598 485.681H58.6396L543.52 0H544.34L59.4598 485.681Z" fill="#C5F381"/>
<path d="M66.0203 485.681H65.2002L550.084 0H550.904L66.0203 485.681Z" fill="#C5F381"/>
<path d="M72.5911 485.681H71.771L556.651 0H557.471L72.5911 485.681Z" fill="#C5F381"/>
<path d="M79.1565 485.681H78.3364L563.216 0H564.037L79.1565 485.681Z" fill="#C5F381"/>
<path d="M85.723 485.681H84.9028L569.786 0H570.607L85.723 485.681Z" fill="#C5F381"/>
<path d="M92.2884 485.681H91.4683L576.352 0H577.172L92.2884 485.681Z" fill="#C5F381"/>
<path d="M98.8592 485.681H98.0391L582.917 0H583.735L98.8592 485.681Z" fill="#C5F381"/>
<path d="M105.425 485.681H104.604L589.483 0H590.301L105.425 485.681Z" fill="#C5F381"/>
<path d="M111.991 485.681H111.17L596.049 0H596.872L111.991 485.681Z" fill="#C5F381"/>
<path d="M118.556 485.681H117.736L602.614 0H603.438L118.556 485.681Z" fill="#C5F381"/>
<path d="M125.127 485.681H124.307L609.185 0H610.003L125.127 485.681Z" fill="#C5F381"/>
<path d="M131.687 485.681H130.867L615.745 0H616.569L131.687 485.681Z" fill="#C5F381"/>
<path d="M138.253 485.681H137.433L622.317 0H623.14L138.253 485.681Z" fill="#C5F381"/>
<path d="M144.819 485.681H143.999L628.883 0H629.706L144.819 485.681Z" fill="#C5F381"/>
</g>
</g>
<rect x="35" y="33" width="76" height="76" fill="#C5F381"/>
<path d="M55.8779 81.7759C58.3033 83.9037 61.1416 86.2157 63.8022 88.319V85.931C63.8022 82.8008 65.3743 80.0312 67.7701 78.3692C66.8708 76.0362 64.5999 74.4302 62.029 74.4302C58.6373 74.4302 55.8779 77.1895 55.8779 80.5811V81.7759Z" fill="#45556E"/>
<path d="M99 66.4902C99 57.7367 91.904 50.6406 83.1506 50.6406C79.2882 50.6406 75.7498 52.0236 73 54.3195C70.2502 52.0237 66.7118 50.6406 62.8494 50.6406C54.096 50.6407 47 57.7368 47 66.4902C47 70.2264 48.3854 73.5894 50.4556 76.3702C51.0181 77.1259 51.8832 78.0555 52.9519 79.0933C53.3915 76.4019 55.0029 74.0993 57.2439 72.7286C55.5287 71.3343 54.4303 69.2091 54.4303 66.8315C54.4303 62.6418 57.839 59.2331 62.0288 59.2331C65.7438 59.2331 68.8425 61.9137 69.4976 65.4417C70.5466 64.8944 71.7373 64.583 73 64.583C74.2627 64.583 75.4534 64.8944 76.5024 65.4417C77.1576 61.9138 80.2562 59.2331 83.9712 59.2331C88.1609 59.2331 91.5696 62.6418 91.5696 66.8315C91.5696 69.2091 90.4712 71.3342 88.7561 72.7286C90.9971 74.0992 92.6085 76.4019 93.0481 79.0933C94.1168 78.0556 94.9819 77.1259 95.5444 76.3702C97.6146 73.5894 99 70.2264 99 66.4902Z" fill="#45556E"/>
<path d="M66.5803 66.8318C66.5803 64.3221 64.5385 62.2803 62.0287 62.2803C59.5189 62.2803 57.4771 64.3221 57.4771 66.8318C57.4771 69.3416 59.5189 71.3834 62.0287 71.3834C64.5385 71.3834 66.5803 69.3416 66.5803 66.8318Z" fill="#45556E"/>
<path d="M90.1221 81.7759V80.5811C90.1221 77.1894 87.3629 74.4302 83.9712 74.4302C81.4002 74.4302 79.1293 76.0361 78.23 78.3693C80.6257 80.0313 82.1978 82.8009 82.1978 85.9311V88.3192C84.8585 86.2157 87.6967 83.9037 90.1221 81.7759Z" fill="#45556E"/>
<path d="M83.9711 62.2798C81.4613 62.2798 79.4194 64.3216 79.4194 66.8313C79.4194 69.3411 81.4612 71.3829 83.9711 71.3829C86.4809 71.3829 88.5226 69.3411 88.5226 66.8313C88.5226 64.3217 86.4808 62.2798 83.9711 62.2798Z" fill="#45556E"/>
<path d="M79.1511 90.7V85.9308C79.1511 82.539 76.3918 79.7798 73.0002 79.7798C69.6085 79.7798 66.8491 82.5391 66.8491 85.9308V90.6999C70.3551 93.4103 73.0001 95.3588 73.0001 95.3588C73.0001 95.3588 75.6449 93.4103 79.1511 90.7Z" fill="#45556E"/>
<path d="M73.7214 76.6764C76.2025 76.2742 77.8878 73.9368 77.4856 71.4558C77.0834 68.9747 74.746 67.2895 72.2649 67.6917C69.7838 68.0939 68.0985 70.4312 68.5007 72.9123C68.9029 75.3933 71.2403 77.0786 73.7214 76.6764Z" fill="#45556E"/>
<defs>
<clipPath id="clip0_3_1936">
<rect width="145" height="141.754" fill="white"/>
</clipPath>
</defs>
</svg>
