<svg width="145" height="142" viewBox="0 0 145 142" fill="none" xmlns="http://www.w3.org/2000/svg">
<g clip-path="url(#clip0_9_8)">
<mask id="mask0_9_8" style="mask-type:luminance" maskUnits="userSpaceOnUse" x="0" y="0" width="145" height="142">
<path d="M145 0H0V141.754H145V0Z" fill="white"/>
</mask>
<g mask="url(#mask0_9_8)">
<path d="M0 5.07556L5.06723 0H5.88746L0 5.89713V5.07556Z" fill="#C5F381"/>
<path d="M0 12.4755V11.654L11.6346 0H12.4548L0 12.4755Z" fill="#C5F381"/>
<path d="M0 19.052V18.2304L18.2002 0H19.0204L0 19.052Z" fill="#C5F381"/>
<path d="M0 25.6304V24.8088L24.7679 0H25.5881L0 25.6304Z" fill="#C5F381"/>
<path d="M0 32.2067V31.3852L31.3334 0H32.1536L0 32.2067Z" fill="#C5F381"/>
<path d="M0 38.7872V37.9657L37.9028 0H38.7229L0 38.7872Z" fill="#C5F381"/>
<path d="M0 45.3596V44.5381L44.4647 0H45.2848L0 45.3596Z" fill="#C5F381"/>
<path d="M0 51.9378V51.1162L51.0323 0H51.8526L0 51.9378Z" fill="#C5F381"/>
<path d="M0 58.5141V57.6927L57.5981 0H58.4182L0 58.5141Z" fill="#C5F381"/>
<path d="M0 65.0946V64.2731L64.1671 0H64.9873L0 65.0946Z" fill="#C5F381"/>
<path d="M0 71.671V70.8496L70.7327 0H71.5528L0 71.671Z" fill="#C5F381"/>
<path d="M0 78.2475V77.426L77.2983 0H78.1185L0 78.2475Z" fill="#C5F381"/>
<path d="M0 84.8239V84.0025L83.8639 0H84.6841L0 84.8239Z" fill="#C5F381"/>
<path d="M0 91.405V90.5829L90.433 0H91.2531L0 91.405Z" fill="#C5F381"/>
<path d="M0 97.9814V97.16L96.9986 0H97.8187L0 97.9814Z" fill="#C5F381"/>
<path d="M0 104.559V103.738L103.567 0H104.387L0 104.559Z" fill="#C5F381"/>
<path d="M0 111.131V110.31L110.129 0H110.949L0 111.131Z" fill="#C5F381"/>
<path d="M0 117.712V116.89L116.698 0H117.518L0 117.712Z" fill="#C5F381"/>
<path d="M0 124.288V123.467L123.263 0H124.083L0 124.288Z" fill="#C5F381"/>
<path d="M0 130.867V130.045L129.831 0H130.652L0 130.867Z" fill="#C5F381"/>
<path d="M0 137.443V136.622L136.397 0H137.218L0 137.443Z" fill="#C5F381"/>
<path d="M0 144.022V143.201L142.964 0H143.784L0 144.022Z" fill="#C5F381"/>
<path d="M0 150.599V149.777L149.529 0H150.349L0 150.599Z" fill="#C5F381"/>
<path d="M0 157.176V156.355L156.097 0H156.917L0 157.176Z" fill="#C5F381"/>
<path d="M0 163.753V162.931L162.663 0H163.483L0 163.753Z" fill="#C5F381"/>
<path d="M0 170.329V169.508L169.228 0H170.048L0 170.329Z" fill="#C5F381"/>
<path d="M0 176.906V176.084L175.794 0H176.614L0 176.906Z" fill="#C5F381"/>
<path d="M0 183.483V182.662L182.362 0H183.183L0 183.483Z" fill="#C5F381"/>
<path d="M0 190.06V189.238L188.928 0H189.748L0 190.06Z" fill="#C5F381"/>
<path d="M0 196.641V195.819L195.497 0H196.317L0 196.641Z" fill="#C5F381"/>
<path d="M0 203.216V202.395L202.059 0H202.88L0 203.216Z" fill="#C5F381"/>
<path d="M0 209.794V208.972L208.628 0H209.448L0 209.794Z" fill="#C5F381"/>
<path d="M0 216.37V215.549L215.193 0H216.013L0 216.37Z" fill="#C5F381"/>
<path d="M0 222.952V222.13L221.762 0H222.582L0 222.952Z" fill="#C5F381"/>
<path d="M0 229.528V228.706L228.327 0H229.148L0 229.528Z" fill="#C5F381"/>
<path d="M0 236.101V235.279L234.893 0H235.713L0 236.101Z" fill="#C5F381"/>
<path d="M0 242.677V241.856L241.459 0H242.279L0 242.677Z" fill="#C5F381"/>
<path d="M0 249.258V248.437L248.027 0H248.847L0 249.258Z" fill="#C5F381"/>
<path d="M0 255.835V255.013L254.593 0H255.413L0 255.835Z" fill="#C5F381"/>
<path d="M0 262.412V261.591L261.161 0H261.981L0 262.412Z" fill="#C5F381"/>
<path d="M0 268.988V268.166L267.724 0H268.544L0 268.988Z" fill="#C5F381"/>
<path d="M0 275.569V274.748L274.292 0H275.113L0 275.569Z" fill="#C5F381"/>
<path d="M0 282.146V281.324L280.858 0H281.678L0 282.146Z" fill="#C5F381"/>
<path d="M0 288.723V287.901L287.427 0H288.247L0 288.723Z" fill="#C5F381"/>
<path d="M0 295.299V294.478L293.992 0H294.812L0 295.299Z" fill="#C5F381"/>
<path d="M0 301.876V301.054L300.558 0H301.378L0 301.876Z" fill="#C5F381"/>
<path d="M0 308.452V307.63L307.123 0H307.944L0 308.452Z" fill="#C5F381"/>
<path d="M0 315.029V314.208L313.692 0H314.513L0 315.029Z" fill="#C5F381"/>
<path d="M0 321.606V320.784L320.258 0H321.078L0 321.606Z" fill="#C5F381"/>
<path d="M0 328.187V327.365L326.823 0H327.643L0 328.187Z" fill="#C5F381"/>
<path d="M0 334.764V333.942L333.392 0H334.212L0 334.764Z" fill="#C5F381"/>
<path d="M0 341.34V340.519L339.957 0H340.777L0 341.34Z" fill="#C5F381"/>
<path d="M0 347.917V347.095L346.523 0H347.343L0 347.917Z" fill="#C5F381"/>
<path d="M0 354.498V353.677L353.091 0H353.911L0 354.498Z" fill="#C5F381"/>
<path d="M0 361.07V360.248L359.657 0H360.478L0 361.07Z" fill="#C5F381"/>
<path d="M0 367.646V366.825L366.223 0H367.043L0 367.646Z" fill="#C5F381"/>
<path d="M0 374.223V373.401L372.789 0H373.609L0 374.223Z" fill="#C5F381"/>
<path d="M0 380.805V379.983L379.357 0H380.177L0 380.805Z" fill="#C5F381"/>
<path d="M0 387.382V386.56L385.926 0H386.746L0 387.382Z" fill="#C5F381"/>
<path d="M0 393.957V393.136L392.488 0H393.308L0 393.957Z" fill="#C5F381"/>
<path d="M0 400.534V399.712L399.053 0H399.873L0 400.534Z" fill="#C5F381"/>
<path d="M0 407.116V406.295L405.621 0H406.441L0 407.116Z" fill="#C5F381"/>
<path d="M0 413.693V412.871L412.19 0H413.01L0 413.693Z" fill="#C5F381"/>
<path d="M0 420.269V419.448L418.756 0H419.576L0 420.269Z" fill="#C5F381"/>
<path d="M0 426.84V426.019L425.319 0H426.14L0 426.84Z" fill="#C5F381"/>
<path d="M0 433.422V432.6L431.887 0H432.707L0 433.422Z" fill="#C5F381"/>
<path d="M0 439.999V439.177L438.457 0H439.277L0 439.999Z" fill="#C5F381"/>
<path d="M0 446.575V445.753L445.022 0H445.843L0 446.575Z" fill="#C5F381"/>
<path d="M0 453.157V452.336L451.59 0H452.41L0 453.157Z" fill="#C5F381"/>
<path d="M0 459.733V458.912L458.152 0H458.972L0 459.733Z" fill="#C5F381"/>
<path d="M0 466.31V465.488L464.721 0H465.541L0 466.31Z" fill="#C5F381"/>
<path d="M0 472.886V472.065L471.287 0H472.107L0 472.886Z" fill="#C5F381"/>
<path d="M0 479.469V478.647L477.855 0H478.675L0 479.469Z" fill="#C5F381"/>
<path d="M0.363839 485.681H0V485.224L484.419 0H485.24L0.363839 485.681Z" fill="#C5F381"/>
<path d="M6.92369 485.681H6.10352L490.987 0H491.808L6.92369 485.681Z" fill="#C5F381"/>
<path d="M13.4894 485.681H12.6692L497.553 0H498.373L13.4894 485.681Z" fill="#C5F381"/>
<path d="M20.0607 485.681H19.2405L504.12 0H504.94L20.0607 485.681Z" fill="#C5F381"/>
<path d="M26.6263 485.681H25.8062L510.686 0H511.506L26.6263 485.681Z" fill="#C5F381"/>
<path d="M33.1918 485.681H32.3716L517.251 0H518.072L33.1918 485.681Z" fill="#C5F381"/>
<path d="M39.7574 485.681H38.9373L523.817 0H524.637L39.7574 485.681Z" fill="#C5F381"/>
<path d="M46.3287 485.681H45.5085L530.385 0H531.205L46.3287 485.681Z" fill="#C5F381"/>
<path d="M52.8942 485.681H52.074L536.95 0H537.77L52.8942 485.681Z" fill="#C5F381"/>
<path d="M59.4598 485.681H58.6396L543.52 0H544.34L59.4598 485.681Z" fill="#C5F381"/>
<path d="M66.0203 485.681H65.2002L550.084 0H550.904L66.0203 485.681Z" fill="#C5F381"/>
<path d="M72.5911 485.681H71.771L556.651 0H557.471L72.5911 485.681Z" fill="#C5F381"/>
<path d="M79.1565 485.681H78.3364L563.216 0H564.037L79.1565 485.681Z" fill="#C5F381"/>
<path d="M85.723 485.681H84.9028L569.786 0H570.607L85.723 485.681Z" fill="#C5F381"/>
<path d="M92.2884 485.681H91.4683L576.352 0H577.172L92.2884 485.681Z" fill="#C5F381"/>
<path d="M98.8592 485.681H98.0391L582.917 0H583.735L98.8592 485.681Z" fill="#C5F381"/>
<path d="M105.425 485.681H104.604L589.483 0H590.301L105.425 485.681Z" fill="#C5F381"/>
<path d="M111.991 485.681H111.17L596.049 0H596.872L111.991 485.681Z" fill="#C5F381"/>
<path d="M118.556 485.681H117.736L602.614 0H603.438L118.556 485.681Z" fill="#C5F381"/>
<path d="M125.127 485.681H124.307L609.186 0H610.003L125.127 485.681Z" fill="#C5F381"/>
<path d="M131.687 485.681H130.867L615.745 0H616.569L131.687 485.681Z" fill="#C5F381"/>
<path d="M138.253 485.681H137.433L622.317 0H623.14L138.253 485.681Z" fill="#C5F381"/>
<path d="M144.819 485.681H143.999L628.883 0H629.706L144.819 485.681Z" fill="#C5F381"/>
</g>
</g>
<rect x="35" y="33" width="76" height="76" fill="#C5F381"/>
<path fill-rule="evenodd" clip-rule="evenodd" d="M93.4536 76.874V85.3056H80.9214V76.874H93.4536ZM79.7657 70.1739V85.3056H67.2339V70.1739H79.7657ZM53.5459 76.874H66.0781V85.3056H53.5459V76.874ZM50 86.4618H97V89.2717H50L50 86.4618ZM80.651 56.9238C80.6161 56.8166 80.5507 56.7219 80.4627 56.6515C80.3747 56.581 80.268 56.5378 80.1557 56.5272L75.7753 56.1147L74.0304 52.0764C73.9856 51.9729 73.9114 51.8848 73.8172 51.8229C73.7229 51.761 73.6126 51.728 73.4998 51.728C73.387 51.728 73.2767 51.761 73.1824 51.8229C73.0881 51.8848 73.014 51.9729 72.9691 52.0764L71.2241 56.1143L66.8436 56.5269C66.7314 56.5374 66.6247 56.5806 66.5367 56.6511C66.4487 56.7216 66.3832 56.8163 66.3484 56.9235C66.3136 57.0308 66.3109 57.1458 66.3407 57.2546C66.3705 57.3633 66.4315 57.461 66.5161 57.5355L69.8167 60.4439L68.8558 64.7363C68.8314 64.8462 68.8397 64.9609 68.8795 65.0663C68.9194 65.1716 68.9892 65.263 69.0803 65.3292C69.1714 65.3955 69.2798 65.4337 69.3923 65.4392C69.5048 65.4446 69.6165 65.4171 69.7136 65.36L73.5 63.1195L77.2862 65.3602C77.3832 65.4176 77.4949 65.4454 77.6076 65.44C77.7202 65.4347 77.8288 65.3965 77.92 65.3302C78.0112 65.2639 78.081 65.1723 78.1208 65.0668C78.1606 64.9613 78.1686 64.8465 78.1439 64.7365L77.1829 60.4443L80.4834 57.5358C80.568 57.4613 80.6289 57.3636 80.6587 57.2549C80.6885 57.1461 80.6859 57.0311 80.6512 56.9238H80.651ZM87.7182 58.7765L89.4641 62.8144L93.8437 63.2269C93.9559 63.2376 94.0625 63.2809 94.1504 63.3514C94.2383 63.4219 94.3037 63.5166 94.3385 63.6238C94.3732 63.731 94.3759 63.846 94.3461 63.9547C94.3163 64.0634 94.2554 64.161 94.1708 64.2355L90.8702 67.1436L91.8318 71.4363C91.8564 71.5464 91.8483 71.6612 91.8084 71.7667C91.7686 71.8722 91.6988 71.9637 91.6076 72.03C91.5164 72.0964 91.4078 72.1346 91.2952 72.14C91.1826 72.1454 91.0709 72.1178 90.9737 72.0606L87.1879 69.8199L83.4024 72.0606C83.3053 72.1182 83.1935 72.1461 83.0807 72.1408C82.9679 72.1355 82.8592 72.0973 82.7679 72.0309C82.6766 71.9645 82.6067 71.8728 82.567 71.7671C82.5272 71.6615 82.5193 71.5465 82.5442 71.4363L83.5047 67.1436L80.2041 64.2355C80.1194 64.161 80.0584 64.0633 80.0286 63.9545C79.9988 63.8456 80.0016 63.7305 80.0365 63.6232C80.0714 63.5159 80.137 63.4212 80.2251 63.3508C80.3133 63.2804 80.4201 63.2373 80.5325 63.2269L84.9116 62.8144L86.658 58.7765C86.7027 58.673 86.7767 58.5849 86.8709 58.523C86.9652 58.461 87.0755 58.428 87.1882 58.428C87.3009 58.428 87.4112 58.461 87.5055 58.523C87.5997 58.5849 87.6737 58.673 87.7184 58.7765H87.7182ZM56.1292 67.1436L52.8286 64.2355C52.744 64.1611 52.683 64.0635 52.6532 63.9548C52.6234 63.8461 52.626 63.731 52.6608 63.6238C52.6956 63.5166 52.761 63.4219 52.8489 63.3513C52.9368 63.2808 53.0435 63.2376 53.1557 63.2269L57.5352 62.8144L59.2812 58.7765C59.3261 58.6732 59.4002 58.5852 59.4945 58.5234C59.5887 58.4616 59.6989 58.4287 59.8116 58.4287C59.9243 58.4287 60.0345 58.4616 60.1288 58.5234C60.223 58.5852 60.2971 58.6732 60.342 58.7765L62.0879 62.8144L66.4666 63.2269C66.579 63.2373 66.6858 63.2803 66.774 63.3508C66.8622 63.4212 66.9278 63.5159 66.9627 63.6231C66.9977 63.7304 67.0004 63.8456 66.9706 63.9544C66.9409 64.0633 66.8799 64.161 66.7952 64.2355L63.4946 67.1436L64.4553 71.4363C64.4799 71.5464 64.4718 71.6612 64.432 71.7667C64.3921 71.8722 64.3223 71.9638 64.2311 72.0301C64.1399 72.0965 64.0313 72.1347 63.9187 72.1401C63.806 72.1455 63.6943 72.1179 63.5971 72.0606L59.8123 69.8199L56.026 72.0606C55.9289 72.1179 55.8171 72.1455 55.7045 72.1401C55.5918 72.1347 55.4832 72.0965 55.392 72.0301C55.3008 71.9638 55.231 71.8722 55.1912 71.7667C55.1513 71.6612 55.1432 71.5464 55.1678 71.4363L56.1292 67.1436Z" fill="#45556E"/>
<defs>
<clipPath id="clip0_9_8">
<rect width="145" height="141.754" fill="white"/>
</clipPath>
</defs>
</svg>
