<svg width="145" height="142" viewBox="0 0 145 142" fill="none" xmlns="http://www.w3.org/2000/svg">
<g clip-path="url(#clip0_3_1516)">
<mask id="mask0_3_1516" style="mask-type:luminance" maskUnits="userSpaceOnUse" x="0" y="0" width="145" height="142">
<path d="M145 0H0V141.754H145V0Z" fill="white"/>
</mask>
<g mask="url(#mask0_3_1516)">
<path d="M0 5.07556L5.06723 0H5.88746L0 5.89713V5.07556Z" fill="#C5F381"/>
<path d="M0 12.4755V11.654L11.6346 0H12.4548L0 12.4755Z" fill="#C5F381"/>
<path d="M0 19.052V18.2304L18.2002 0H19.0204L0 19.052Z" fill="#C5F381"/>
<path d="M0 25.6304V24.8088L24.7679 0H25.5881L0 25.6304Z" fill="#C5F381"/>
<path d="M0 32.2067V31.3852L31.3334 0H32.1536L0 32.2067Z" fill="#C5F381"/>
<path d="M0 38.7872V37.9657L37.9028 0H38.7229L0 38.7872Z" fill="#C5F381"/>
<path d="M0 45.3596V44.5381L44.4647 0H45.2848L0 45.3596Z" fill="#C5F381"/>
<path d="M0 51.9378V51.1162L51.0323 0H51.8526L0 51.9378Z" fill="#C5F381"/>
<path d="M0 58.5141V57.6927L57.5981 0H58.4182L0 58.5141Z" fill="#C5F381"/>
<path d="M0 65.0946V64.2731L64.1671 0H64.9873L0 65.0946Z" fill="#C5F381"/>
<path d="M0 71.671V70.8496L70.7327 0H71.5528L0 71.671Z" fill="#C5F381"/>
<path d="M0 78.2475V77.426L77.2983 0H78.1185L0 78.2475Z" fill="#C5F381"/>
<path d="M0 84.8239V84.0025L83.8639 0H84.6841L0 84.8239Z" fill="#C5F381"/>
<path d="M0 91.405V90.5829L90.433 0H91.2531L0 91.405Z" fill="#C5F381"/>
<path d="M0 97.9814V97.16L96.9986 0H97.8187L0 97.9814Z" fill="#C5F381"/>
<path d="M0 104.559V103.738L103.567 0H104.387L0 104.559Z" fill="#C5F381"/>
<path d="M0 111.131V110.31L110.129 0H110.949L0 111.131Z" fill="#C5F381"/>
<path d="M0 117.712V116.89L116.698 0H117.518L0 117.712Z" fill="#C5F381"/>
<path d="M0 124.288V123.467L123.263 0H124.083L0 124.288Z" fill="#C5F381"/>
<path d="M0 130.867V130.045L129.831 0H130.652L0 130.867Z" fill="#C5F381"/>
<path d="M0 137.443V136.622L136.397 0H137.218L0 137.443Z" fill="#C5F381"/>
<path d="M0 144.022V143.201L142.964 0H143.784L0 144.022Z" fill="#C5F381"/>
<path d="M0 150.599V149.777L149.529 0H150.349L0 150.599Z" fill="#C5F381"/>
<path d="M0 157.176V156.355L156.097 0H156.917L0 157.176Z" fill="#C5F381"/>
<path d="M0 163.753V162.931L162.663 0H163.483L0 163.753Z" fill="#C5F381"/>
<path d="M0 170.329V169.508L169.228 0H170.048L0 170.329Z" fill="#C5F381"/>
<path d="M0 176.906V176.084L175.794 0H176.614L0 176.906Z" fill="#C5F381"/>
<path d="M0 183.483V182.662L182.362 0H183.183L0 183.483Z" fill="#C5F381"/>
<path d="M0 190.06V189.238L188.928 0H189.748L0 190.06Z" fill="#C5F381"/>
<path d="M0 196.641V195.819L195.497 0H196.317L0 196.641Z" fill="#C5F381"/>
<path d="M0 203.216V202.395L202.059 0H202.88L0 203.216Z" fill="#C5F381"/>
<path d="M0 209.794V208.972L208.628 0H209.448L0 209.794Z" fill="#C5F381"/>
<path d="M0 216.37V215.549L215.193 0H216.013L0 216.37Z" fill="#C5F381"/>
<path d="M0 222.952V222.13L221.762 0H222.582L0 222.952Z" fill="#C5F381"/>
<path d="M0 229.528V228.706L228.327 0H229.148L0 229.528Z" fill="#C5F381"/>
<path d="M0 236.101V235.279L234.893 0H235.713L0 236.101Z" fill="#C5F381"/>
<path d="M0 242.677V241.856L241.459 0H242.279L0 242.677Z" fill="#C5F381"/>
<path d="M0 249.258V248.437L248.027 0H248.847L0 249.258Z" fill="#C5F381"/>
<path d="M0 255.835V255.013L254.593 0H255.413L0 255.835Z" fill="#C5F381"/>
<path d="M0 262.412V261.591L261.161 0H261.981L0 262.412Z" fill="#C5F381"/>
<path d="M0 268.988V268.166L267.724 0H268.544L0 268.988Z" fill="#C5F381"/>
<path d="M0 275.569V274.748L274.292 0H275.113L0 275.569Z" fill="#C5F381"/>
<path d="M0 282.146V281.324L280.858 0H281.678L0 282.146Z" fill="#C5F381"/>
<path d="M0 288.723V287.901L287.427 0H288.247L0 288.723Z" fill="#C5F381"/>
<path d="M0 295.299V294.478L293.992 0H294.812L0 295.299Z" fill="#C5F381"/>
<path d="M0 301.876V301.054L300.558 0H301.378L0 301.876Z" fill="#C5F381"/>
<path d="M0 308.452V307.63L307.123 0H307.944L0 308.452Z" fill="#C5F381"/>
<path d="M0 315.029V314.208L313.692 0H314.513L0 315.029Z" fill="#C5F381"/>
<path d="M0 321.606V320.784L320.258 0H321.078L0 321.606Z" fill="#C5F381"/>
<path d="M0 328.187V327.365L326.823 0H327.643L0 328.187Z" fill="#C5F381"/>
<path d="M0 334.764V333.942L333.392 0H334.212L0 334.764Z" fill="#C5F381"/>
<path d="M0 341.34V340.519L339.957 0H340.777L0 341.34Z" fill="#C5F381"/>
<path d="M0 347.917V347.095L346.523 0H347.343L0 347.917Z" fill="#C5F381"/>
<path d="M0 354.498V353.677L353.091 0H353.911L0 354.498Z" fill="#C5F381"/>
<path d="M0 361.07V360.248L359.657 0H360.478L0 361.07Z" fill="#C5F381"/>
<path d="M0 367.646V366.825L366.223 0H367.043L0 367.646Z" fill="#C5F381"/>
<path d="M0 374.223V373.401L372.789 0H373.609L0 374.223Z" fill="#C5F381"/>
<path d="M0 380.805V379.983L379.357 0H380.177L0 380.805Z" fill="#C5F381"/>
<path d="M0 387.382V386.56L385.926 0H386.746L0 387.382Z" fill="#C5F381"/>
<path d="M0 393.957V393.136L392.488 0H393.308L0 393.957Z" fill="#C5F381"/>
<path d="M0 400.534V399.712L399.053 0H399.873L0 400.534Z" fill="#C5F381"/>
<path d="M0 407.116V406.295L405.621 0H406.441L0 407.116Z" fill="#C5F381"/>
<path d="M0 413.693V412.871L412.19 0H413.01L0 413.693Z" fill="#C5F381"/>
<path d="M0 420.269V419.448L418.756 0H419.576L0 420.269Z" fill="#C5F381"/>
<path d="M0 426.84V426.019L425.319 0H426.14L0 426.84Z" fill="#C5F381"/>
<path d="M0 433.422V432.6L431.887 0H432.707L0 433.422Z" fill="#C5F381"/>
<path d="M0 439.999V439.177L438.457 0H439.277L0 439.999Z" fill="#C5F381"/>
<path d="M0 446.575V445.753L445.022 0H445.843L0 446.575Z" fill="#C5F381"/>
<path d="M0 453.157V452.336L451.59 0H452.41L0 453.157Z" fill="#C5F381"/>
<path d="M0 459.733V458.912L458.152 0H458.972L0 459.733Z" fill="#C5F381"/>
<path d="M0 466.31V465.488L464.721 0H465.541L0 466.31Z" fill="#C5F381"/>
<path d="M0 472.886V472.065L471.287 0H472.107L0 472.886Z" fill="#C5F381"/>
<path d="M0 479.469V478.647L477.855 0H478.675L0 479.469Z" fill="#C5F381"/>
<path d="M0.363839 485.681H0V485.224L484.419 0H485.24L0.363839 485.681Z" fill="#C5F381"/>
<path d="M6.92369 485.681H6.10352L490.987 0H491.808L6.92369 485.681Z" fill="#C5F381"/>
<path d="M13.4891 485.681H12.6689L497.553 0H498.373L13.4891 485.681Z" fill="#C5F381"/>
<path d="M20.0604 485.681H19.2402L504.12 0H504.94L20.0604 485.681Z" fill="#C5F381"/>
<path d="M26.6263 485.681H25.8062L510.686 0H511.506L26.6263 485.681Z" fill="#C5F381"/>
<path d="M33.1918 485.681H32.3716L517.251 0H518.072L33.1918 485.681Z" fill="#C5F381"/>
<path d="M39.7577 485.681H38.9375L523.817 0H524.638L39.7577 485.681Z" fill="#C5F381"/>
<path d="M46.3285 485.681H45.5083L530.384 0H531.204L46.3285 485.681Z" fill="#C5F381"/>
<path d="M52.8944 485.681H52.0742L536.95 0H537.77L52.8944 485.681Z" fill="#C5F381"/>
<path d="M59.4598 485.681H58.6396L543.52 0H544.34L59.4598 485.681Z" fill="#C5F381"/>
<path d="M66.0203 485.681H65.2002L550.084 0H550.904L66.0203 485.681Z" fill="#C5F381"/>
<path d="M72.5911 485.681H71.771L556.651 0H557.471L72.5911 485.681Z" fill="#C5F381"/>
<path d="M79.1565 485.681H78.3364L563.216 0H564.037L79.1565 485.681Z" fill="#C5F381"/>
<path d="M85.723 485.681H84.9028L569.786 0H570.607L85.723 485.681Z" fill="#C5F381"/>
<path d="M92.2884 485.681H91.4683L576.352 0H577.172L92.2884 485.681Z" fill="#C5F381"/>
<path d="M98.8592 485.681H98.0391L582.917 0H583.735L98.8592 485.681Z" fill="#C5F381"/>
<path d="M105.425 485.681H104.604L589.483 0H590.301L105.425 485.681Z" fill="#C5F381"/>
<path d="M111.991 485.681H111.17L596.049 0H596.872L111.991 485.681Z" fill="#C5F381"/>
<path d="M118.556 485.681H117.736L602.614 0H603.438L118.556 485.681Z" fill="#C5F381"/>
<path d="M125.127 485.681H124.307L609.185 0H610.003L125.127 485.681Z" fill="#C5F381"/>
<path d="M131.687 485.681H130.867L615.745 0H616.569L131.687 485.681Z" fill="#C5F381"/>
<path d="M138.253 485.681H137.433L622.317 0H623.14L138.253 485.681Z" fill="#C5F381"/>
<path d="M144.819 485.681H143.999L628.883 0H629.706L144.819 485.681Z" fill="#C5F381"/>
</g>
</g>
<rect x="35" y="33" width="76" height="76" fill="#C5F381"/>
<path d="M94.9052 81.9091C93.4011 80.405 91.402 79.5772 89.2763 79.5772C87.4176 79.5772 85.6565 80.2097 84.2381 81.3732L78.8671 76.0042C81.2986 73.0389 81.2986 68.7347 78.8671 65.7714L84.1564 60.4821C85.4244 61.5091 86.9345 62.0918 88.4785 62.2303V67.3741C86.8737 67.7377 85.6715 69.175 85.6715 70.8883C85.6715 72.8745 87.2881 74.4892 89.2763 74.4892C91.2645 74.4892 92.8772 72.8745 92.8772 70.8883C92.8772 69.175 91.6769 67.7387 90.0732 67.3741V62.2153C91.6152 62.05 93.1153 61.4394 94.3693 60.3865C94.3883 60.3705 94.4082 60.3546 94.4261 60.3377C94.5825 60.2032 94.7369 60.0638 94.8853 59.9153C96.4024 58.3993 97.2371 56.3822 97.2371 54.2366C97.2371 52.091 96.4024 50.0739 94.8853 48.5569C91.7536 45.4252 86.6566 45.4252 83.5249 48.5569C82.0088 50.0739 81.1741 52.09 81.1741 54.2366C81.1741 56.1302 81.8255 57.9241 83.0209 59.3615L77.7386 64.6438C74.7752 62.2123 70.4721 62.2123 67.5087 64.6438L62.2244 59.3615C63.2444 58.1363 63.869 56.6521 64.0303 55.0663L69.1243 55.0883C69.5088 56.6651 70.9303 57.8395 72.6226 57.8395C74.6098 57.8395 76.2265 56.2218 76.2265 54.2346C76.2265 52.2474 74.6098 50.6337 72.6226 50.6337C70.8904 50.6337 69.4411 51.8619 69.0985 53.4935L64.0373 53.4716C63.863 51.6139 63.0561 49.8916 61.7204 48.5579C60.2043 47.0398 58.1872 46.2041 56.0427 46.2041C53.8981 46.2041 51.88 47.0398 50.3619 48.5569C47.2312 51.6886 47.2312 56.7836 50.3619 59.9153C50.5064 60.0588 50.6558 60.1942 50.8082 60.3257C50.8341 60.3516 50.862 60.3765 50.8928 60.3984C52.3352 61.6087 54.1381 62.2681 56.0427 62.2681C57.9024 62.2681 59.6654 61.6396 61.0889 60.4831L66.3811 65.7724C63.9496 68.7347 63.9496 73.0389 66.3811 76.0042L61.0899 81.2965C59.8547 80.2795 58.3616 79.6609 56.7698 79.5055V74.3995C58.3725 74.036 59.5738 72.5996 59.5738 70.8883C59.5738 68.9011 57.9581 67.2834 55.9719 67.2834C53.9857 67.2834 52.3681 68.9011 52.3681 70.8883C52.3681 72.6006 53.5694 74.036 55.1741 74.3995V79.5055C53.3183 79.6868 51.5981 80.4966 50.2633 81.8334C47.1167 84.98 47.1167 90.1 50.2633 93.2476C50.4068 93.3911 50.5552 93.5255 50.7066 93.656C50.7365 93.6859 50.7683 93.7138 50.8032 93.7387C52.2953 94.9838 54.1331 95.6084 55.9719 95.6084C57.8107 95.6084 59.6485 94.9838 61.1397 93.7387C61.1755 93.7138 61.2074 93.6859 61.2383 93.655C61.3887 93.5245 61.5371 93.3911 61.6805 93.2476C63.2046 91.7226 64.0443 89.6955 64.0443 87.54C64.0443 85.6524 63.4008 83.8634 62.2174 82.4241L67.5087 77.1328C68.9909 78.348 70.8067 78.9567 72.6236 78.9567C74.4405 78.9567 76.2574 78.348 77.7396 77.1328L83.1105 82.5018C82.1074 83.724 81.4988 85.2022 81.3504 86.777L76.1398 86.7551C75.7812 85.1454 74.3409 83.9371 72.6226 83.9371C70.6364 83.9371 69.0208 85.5528 69.0208 87.539C69.0208 89.5252 70.6364 91.1429 72.6226 91.1429C74.3309 91.1429 75.7643 89.9486 76.1339 88.3508L81.3574 88.3727C81.5446 90.1846 82.3405 91.864 83.6464 93.1679C83.7839 93.3054 83.9263 93.4349 84.0707 93.5604C84.1056 93.5963 84.1434 93.6291 84.1843 93.658C85.6117 94.8503 87.3937 95.5008 89.2763 95.5008C91.1589 95.5008 92.9489 94.8473 94.3783 93.649C94.4082 93.6271 94.4361 93.6022 94.462 93.5763C94.6134 93.4458 94.7628 93.3114 94.9052 93.1689C96.4093 91.6658 97.2381 89.6667 97.2381 87.54C97.2381 85.4133 96.4093 83.4132 94.9052 81.9091ZM82.7688 54.2366C82.7688 52.5163 83.4382 50.9007 84.6535 49.6854C85.9085 48.4304 87.5571 47.8028 89.2056 47.8028C90.8541 47.8028 92.5027 48.4304 93.7577 49.6854C94.973 50.9007 95.6414 52.5163 95.6414 54.2366C95.6414 55.7457 95.1264 57.1751 94.1791 58.3236C93.6203 57.2578 92.7387 56.4091 91.6749 55.8901C92.3064 55.2576 92.6969 54.386 92.6969 53.4248C92.6969 51.4993 91.131 49.9335 89.2056 49.9335C87.2801 49.9335 85.7143 51.4993 85.7143 53.4248C85.7143 54.386 86.1048 55.2576 86.7363 55.8901C85.6725 56.4091 84.7899 57.2578 84.2311 58.3226C83.2848 57.1741 82.7688 55.7447 82.7688 54.2366ZM61.0152 58.3216C60.4573 57.2578 59.5748 56.4091 58.512 55.8901C59.1435 55.2576 59.534 54.386 59.534 53.4248C59.534 51.4993 57.9681 49.9335 56.0427 49.9335C54.1172 49.9335 52.5513 51.4993 52.5513 53.4248C52.5513 54.386 52.9418 55.2576 53.5733 55.8901C52.5105 56.4091 51.628 57.2578 51.0692 58.3216C48.9903 55.7965 49.1308 52.0452 51.4905 49.6854C52.7067 48.4692 54.3234 47.7988 56.0427 47.7988C57.7619 47.7988 59.3766 48.4692 60.5928 49.6854C61.808 50.9007 62.4784 52.5163 62.4784 54.2366C62.4784 55.7447 61.9624 57.1731 61.0152 58.3216ZM62.4495 87.54C62.4495 89.06 61.9286 90.5004 60.9723 91.6569C60.4095 90.5821 59.52 89.7254 58.4472 89.2035C59.0827 88.568 59.4772 87.6904 59.4772 86.7232C59.4772 84.7898 57.9053 83.217 55.9719 83.217C54.0385 83.217 52.4667 84.7898 52.4667 86.7232C52.4667 87.6904 52.8611 88.568 53.4976 89.2025C52.4248 89.7254 51.5343 90.5821 50.9715 91.6569C48.8758 89.1148 49.0152 85.3376 51.3919 82.961C52.6151 81.7368 54.2417 81.0624 55.9719 81.0624C57.7021 81.0624 59.3288 81.7368 60.553 82.961C61.7752 84.1842 62.4495 85.8108 62.4495 87.54ZM77.624 75.0042C77.0622 73.9294 76.1727 73.0747 75.0999 72.5518C75.7364 71.9173 76.1309 71.0397 76.1309 70.0725C76.1309 68.1391 74.557 66.5662 72.6226 66.5662C70.6882 66.5662 69.1174 68.1391 69.1174 70.0725C69.1174 71.0397 69.5108 71.9173 70.1473 72.5518C69.0745 73.0747 68.185 73.9294 67.6242 75.0042C65.5304 72.4601 65.6699 68.6829 68.0446 66.3073C69.3076 65.0452 70.9661 64.4137 72.6236 64.4137C74.2811 64.4137 75.9406 65.0452 77.2027 66.3073C79.5784 68.6829 79.7178 72.4601 77.624 75.0042ZM94.202 91.5722C93.6502 90.5233 92.7816 89.6876 91.7337 89.1736C92.3552 88.5471 92.7387 87.6864 92.7387 86.7371C92.7387 84.8256 91.1858 83.2707 89.2763 83.2707C87.3668 83.2707 85.8099 84.8256 85.8099 86.7371C85.8099 87.6864 86.1954 88.548 86.817 89.1746C85.7701 89.6886 84.9015 90.5243 84.3486 91.5712C83.4163 90.4376 82.9093 89.0282 82.9093 87.54C82.9093 85.8387 83.5717 84.2399 84.775 83.0377C85.9773 81.8344 87.576 81.172 89.2763 81.172C90.9767 81.172 92.5744 81.8344 93.7777 83.0377C94.9799 84.2399 95.6424 85.8387 95.6424 87.54C95.6424 89.0282 95.1353 90.4386 94.202 91.5722Z" fill="#45556E"/>
<defs>
<clipPath id="clip0_3_1516">
<rect width="145" height="141.754" fill="white"/>
</clipPath>
</defs>
</svg>
