<svg width="145" height="142" viewBox="0 0 145 142" fill="none" xmlns="http://www.w3.org/2000/svg">
<g clip-path="url(#clip0_9_10)">
<mask id="mask0_9_10" style="mask-type:luminance" maskUnits="userSpaceOnUse" x="0" y="0" width="145" height="142">
<path d="M145 0H0V141.754H145V0Z" fill="white"/>
</mask>
<g mask="url(#mask0_9_10)">
<path d="M0 5.07556L5.06723 0H5.88746L0 5.89713V5.07556Z" fill="#C5F381"/>
<path d="M0 12.4755V11.654L11.6346 0H12.4548L0 12.4755Z" fill="#C5F381"/>
<path d="M0 19.052V18.2304L18.2002 0H19.0204L0 19.052Z" fill="#C5F381"/>
<path d="M0 25.6304V24.8088L24.7679 0H25.5881L0 25.6304Z" fill="#C5F381"/>
<path d="M0 32.2067V31.3852L31.3334 0H32.1536L0 32.2067Z" fill="#C5F381"/>
<path d="M0 38.7872V37.9657L37.9028 0H38.7229L0 38.7872Z" fill="#C5F381"/>
<path d="M0 45.3596V44.5381L44.4647 0H45.2848L0 45.3596Z" fill="#C5F381"/>
<path d="M0 51.9378V51.1162L51.0323 0H51.8526L0 51.9378Z" fill="#C5F381"/>
<path d="M0 58.5141V57.6927L57.5981 0H58.4182L0 58.5141Z" fill="#C5F381"/>
<path d="M0 65.0946V64.2731L64.1671 0H64.9873L0 65.0946Z" fill="#C5F381"/>
<path d="M0 71.671V70.8496L70.7327 0H71.5528L0 71.671Z" fill="#C5F381"/>
<path d="M0 78.2475V77.426L77.2983 0H78.1185L0 78.2475Z" fill="#C5F381"/>
<path d="M0 84.8239V84.0025L83.8639 0H84.6841L0 84.8239Z" fill="#C5F381"/>
<path d="M0 91.405V90.5829L90.433 0H91.2531L0 91.405Z" fill="#C5F381"/>
<path d="M0 97.9814V97.16L96.9986 0H97.8187L0 97.9814Z" fill="#C5F381"/>
<path d="M0 104.559V103.738L103.567 0H104.387L0 104.559Z" fill="#C5F381"/>
<path d="M0 111.131V110.31L110.129 0H110.949L0 111.131Z" fill="#C5F381"/>
<path d="M0 117.712V116.89L116.698 0H117.518L0 117.712Z" fill="#C5F381"/>
<path d="M0 124.288V123.467L123.263 0H124.083L0 124.288Z" fill="#C5F381"/>
<path d="M0 130.867V130.045L129.831 0H130.652L0 130.867Z" fill="#C5F381"/>
<path d="M0 137.443V136.622L136.397 0H137.218L0 137.443Z" fill="#C5F381"/>
<path d="M0 144.022V143.201L142.964 0H143.784L0 144.022Z" fill="#C5F381"/>
<path d="M0 150.599V149.777L149.529 0H150.349L0 150.599Z" fill="#C5F381"/>
<path d="M0 157.176V156.355L156.097 0H156.917L0 157.176Z" fill="#C5F381"/>
<path d="M0 163.753V162.931L162.663 0H163.483L0 163.753Z" fill="#C5F381"/>
<path d="M0 170.329V169.508L169.228 0H170.048L0 170.329Z" fill="#C5F381"/>
<path d="M0 176.906V176.084L175.794 0H176.614L0 176.906Z" fill="#C5F381"/>
<path d="M0 183.483V182.662L182.362 0H183.183L0 183.483Z" fill="#C5F381"/>
<path d="M0 190.06V189.238L188.928 0H189.748L0 190.06Z" fill="#C5F381"/>
<path d="M0 196.641V195.819L195.497 0H196.317L0 196.641Z" fill="#C5F381"/>
<path d="M0 203.216V202.395L202.059 0H202.88L0 203.216Z" fill="#C5F381"/>
<path d="M0 209.794V208.972L208.628 0H209.448L0 209.794Z" fill="#C5F381"/>
<path d="M0 216.37V215.549L215.193 0H216.013L0 216.37Z" fill="#C5F381"/>
<path d="M0 222.952V222.13L221.762 0H222.582L0 222.952Z" fill="#C5F381"/>
<path d="M0 229.528V228.706L228.327 0H229.148L0 229.528Z" fill="#C5F381"/>
<path d="M0 236.101V235.279L234.893 0H235.713L0 236.101Z" fill="#C5F381"/>
<path d="M0 242.677V241.856L241.459 0H242.279L0 242.677Z" fill="#C5F381"/>
<path d="M0 249.258V248.437L248.027 0H248.847L0 249.258Z" fill="#C5F381"/>
<path d="M0 255.835V255.013L254.593 0H255.413L0 255.835Z" fill="#C5F381"/>
<path d="M0 262.412V261.591L261.161 0H261.981L0 262.412Z" fill="#C5F381"/>
<path d="M0 268.988V268.166L267.724 0H268.544L0 268.988Z" fill="#C5F381"/>
<path d="M0 275.569V274.748L274.292 0H275.113L0 275.569Z" fill="#C5F381"/>
<path d="M0 282.146V281.324L280.858 0H281.678L0 282.146Z" fill="#C5F381"/>
<path d="M0 288.723V287.901L287.427 0H288.247L0 288.723Z" fill="#C5F381"/>
<path d="M0 295.299V294.478L293.992 0H294.812L0 295.299Z" fill="#C5F381"/>
<path d="M0 301.876V301.054L300.558 0H301.378L0 301.876Z" fill="#C5F381"/>
<path d="M0 308.452V307.63L307.123 0H307.944L0 308.452Z" fill="#C5F381"/>
<path d="M0 315.029V314.208L313.692 0H314.513L0 315.029Z" fill="#C5F381"/>
<path d="M0 321.606V320.784L320.258 0H321.078L0 321.606Z" fill="#C5F381"/>
<path d="M0 328.187V327.365L326.823 0H327.643L0 328.187Z" fill="#C5F381"/>
<path d="M0 334.764V333.942L333.392 0H334.212L0 334.764Z" fill="#C5F381"/>
<path d="M0 341.34V340.519L339.957 0H340.777L0 341.34Z" fill="#C5F381"/>
<path d="M0 347.917V347.095L346.523 0H347.343L0 347.917Z" fill="#C5F381"/>
<path d="M0 354.498V353.677L353.091 0H353.911L0 354.498Z" fill="#C5F381"/>
<path d="M0 361.07V360.248L359.657 0H360.478L0 361.07Z" fill="#C5F381"/>
<path d="M0 367.646V366.825L366.223 0H367.043L0 367.646Z" fill="#C5F381"/>
<path d="M0 374.223V373.401L372.789 0H373.609L0 374.223Z" fill="#C5F381"/>
<path d="M0 380.805V379.983L379.357 0H380.177L0 380.805Z" fill="#C5F381"/>
<path d="M0 387.382V386.56L385.926 0H386.746L0 387.382Z" fill="#C5F381"/>
<path d="M0 393.957V393.136L392.488 0H393.308L0 393.957Z" fill="#C5F381"/>
<path d="M0 400.534V399.712L399.053 0H399.873L0 400.534Z" fill="#C5F381"/>
<path d="M0 407.116V406.295L405.621 0H406.441L0 407.116Z" fill="#C5F381"/>
<path d="M0 413.693V412.871L412.19 0H413.01L0 413.693Z" fill="#C5F381"/>
<path d="M0 420.269V419.448L418.756 0H419.576L0 420.269Z" fill="#C5F381"/>
<path d="M0 426.84V426.019L425.319 0H426.14L0 426.84Z" fill="#C5F381"/>
<path d="M0 433.422V432.6L431.887 0H432.707L0 433.422Z" fill="#C5F381"/>
<path d="M0 439.999V439.177L438.457 0H439.277L0 439.999Z" fill="#C5F381"/>
<path d="M0 446.575V445.753L445.022 0H445.843L0 446.575Z" fill="#C5F381"/>
<path d="M0 453.157V452.336L451.59 0H452.41L0 453.157Z" fill="#C5F381"/>
<path d="M0 459.733V458.912L458.152 0H458.972L0 459.733Z" fill="#C5F381"/>
<path d="M0 466.31V465.488L464.721 0H465.541L0 466.31Z" fill="#C5F381"/>
<path d="M0 472.886V472.065L471.287 0H472.107L0 472.886Z" fill="#C5F381"/>
<path d="M0 479.469V478.647L477.855 0H478.675L0 479.469Z" fill="#C5F381"/>
<path d="M0.363839 485.681H0V485.224L484.419 0H485.24L0.363839 485.681Z" fill="#C5F381"/>
<path d="M6.92369 485.681H6.10352L490.987 0H491.808L6.92369 485.681Z" fill="#C5F381"/>
<path d="M13.4891 485.681H12.6689L497.553 0H498.373L13.4891 485.681Z" fill="#C5F381"/>
<path d="M20.0604 485.681H19.2402L504.12 0H504.94L20.0604 485.681Z" fill="#C5F381"/>
<path d="M26.6263 485.681H25.8062L510.686 0H511.506L26.6263 485.681Z" fill="#C5F381"/>
<path d="M33.1918 485.681H32.3716L517.251 0H518.072L33.1918 485.681Z" fill="#C5F381"/>
<path d="M39.7577 485.681H38.9375L523.817 0H524.638L39.7577 485.681Z" fill="#C5F381"/>
<path d="M46.3285 485.681H45.5083L530.384 0H531.204L46.3285 485.681Z" fill="#C5F381"/>
<path d="M52.8944 485.681H52.0742L536.95 0H537.77L52.8944 485.681Z" fill="#C5F381"/>
<path d="M59.4598 485.681H58.6396L543.52 0H544.34L59.4598 485.681Z" fill="#C5F381"/>
<path d="M66.0203 485.681H65.2002L550.084 0H550.904L66.0203 485.681Z" fill="#C5F381"/>
<path d="M72.5911 485.681H71.771L556.651 0H557.471L72.5911 485.681Z" fill="#C5F381"/>
<path d="M79.1565 485.681H78.3364L563.216 0H564.037L79.1565 485.681Z" fill="#C5F381"/>
<path d="M85.723 485.681H84.9028L569.786 0H570.607L85.723 485.681Z" fill="#C5F381"/>
<path d="M92.2884 485.681H91.4683L576.352 0H577.172L92.2884 485.681Z" fill="#C5F381"/>
<path d="M98.8592 485.681H98.0391L582.917 0H583.735L98.8592 485.681Z" fill="#C5F381"/>
<path d="M105.425 485.681H104.604L589.483 0H590.301L105.425 485.681Z" fill="#C5F381"/>
<path d="M111.991 485.681H111.17L596.049 0H596.872L111.991 485.681Z" fill="#C5F381"/>
<path d="M118.556 485.681H117.736L602.614 0H603.438L118.556 485.681Z" fill="#C5F381"/>
<path d="M125.127 485.681H124.307L609.185 0H610.003L125.127 485.681Z" fill="#C5F381"/>
<path d="M131.687 485.681H130.867L615.745 0H616.569L131.687 485.681Z" fill="#C5F381"/>
<path d="M138.253 485.681H137.433L622.317 0H623.14L138.253 485.681Z" fill="#C5F381"/>
<path d="M144.819 485.681H143.999L628.883 0H629.706L144.819 485.681Z" fill="#C5F381"/>
</g>
</g>
<rect x="35" y="33" width="76" height="76" fill="#C5F381"/>
<g clip-path="url(#clip1_9_10)">
<path d="M84.1895 71.3789C78.2283 71.3789 73.3789 76.2283 73.3789 82.1895C73.3789 88.1506 78.2283 93 84.1895 93C90.1506 93 95 88.1506 95 82.1895C95 76.2283 90.1506 71.3789 84.1895 71.3789ZM88.9941 83.3906H84.1895C83.5257 83.3906 82.9883 82.8532 82.9883 82.1895V77.3848C82.9883 76.721 83.5257 76.1836 84.1895 76.1836C84.8532 76.1836 85.3906 76.721 85.3906 77.3848V80.9883H88.9941C89.6579 80.9883 90.1953 81.5257 90.1953 82.1895C90.1953 82.8532 89.6579 83.3906 88.9941 83.3906Z" fill="#45556E"/>
<path d="M92.5176 55.6836C92.5176 55.0107 91.9893 54.4824 91.3164 54.4824H85.3105V58.0859C85.3105 58.7585 84.7822 59.2871 84.1094 59.2871C83.4365 59.2871 82.9082 58.7585 82.9082 58.0859V54.4824H78.1035V58.0859C78.1035 58.7585 77.5752 59.2871 76.9023 59.2871C76.2295 59.2871 75.7012 58.7585 75.7012 58.0859V54.4824H70.8965V58.0859C70.8965 58.7585 70.3682 59.2871 69.6953 59.2871C69.0225 59.2871 68.4941 58.7585 68.4941 58.0859V54.4824H63.6895V58.0859C63.6895 58.7585 63.1611 59.2871 62.4883 59.2871C61.8154 59.2871 61.2871 58.7585 61.2871 58.0859V54.4824H55.2012C54.5283 54.4824 54 55.0107 54 55.6836V61.6895H92.5176V55.6836Z" fill="#45556E"/>
<path d="M72.0977 76.1035H72.3861C72.8246 75.2514 73.3195 74.4334 73.9251 73.7012H72.0977C71.4339 73.7012 70.8965 73.1638 70.8965 72.5C70.8965 71.8362 71.4339 71.2988 72.0977 71.2988H74.5C74.992 71.2988 75.4121 71.5957 75.5979 72.0189C77.8993 70.0748 80.8678 68.8965 84.1094 68.8965H81.707C81.0433 68.8965 80.5059 68.3591 80.5059 67.6953C80.5059 67.0315 81.0433 66.4941 81.707 66.4941H84.1094C84.7731 66.4941 85.3105 67.0315 85.3105 67.6953C85.3105 68.3591 84.7731 68.8965 84.1094 68.8965C87.3009 68.8965 90.2316 70.0345 92.5176 71.9251V64.0918H54V86.9141C54 87.5778 54.5374 88.1152 55.2012 88.1152H72.3551C71.4295 86.311 70.8965 84.2727 70.8965 82.1094C70.8965 80.7871 71.1336 79.5272 71.4968 78.3219C71.1442 78.1127 70.8965 77.7448 70.8965 77.3047C70.8965 76.6409 71.4339 76.1035 72.0977 76.1035ZM72.0977 66.4941H74.5C75.1638 66.4941 75.7012 67.0315 75.7012 67.6953C75.7012 68.3591 75.1638 68.8965 74.5 68.8965H72.0977C71.4339 68.8965 70.8965 68.3591 70.8965 67.6953C70.8965 67.0315 71.4339 66.4941 72.0977 66.4941ZM64.8906 83.3105H62.4883C61.8245 83.3105 61.2871 82.7731 61.2871 82.1094C61.2871 81.4456 61.8245 80.9082 62.4883 80.9082H64.8906C65.5544 80.9082 66.0918 81.4456 66.0918 82.1094C66.0918 82.7731 65.5544 83.3105 64.8906 83.3105ZM64.8906 78.5059H62.4883C61.8245 78.5059 61.2871 77.9685 61.2871 77.3047C61.2871 76.6409 61.8245 76.1035 62.4883 76.1035H64.8906C65.5544 76.1035 66.0918 76.6409 66.0918 77.3047C66.0918 77.9685 65.5544 78.5059 64.8906 78.5059ZM64.8906 73.7012H62.4883C61.8245 73.7012 61.2871 73.1638 61.2871 72.5C61.2871 71.8362 61.8245 71.2988 62.4883 71.2988H64.8906C65.5544 71.2988 66.0918 71.8362 66.0918 72.5C66.0918 73.1638 65.5544 73.7012 64.8906 73.7012ZM64.8906 68.8965H62.4883C61.8245 68.8965 61.2871 68.3591 61.2871 67.6953C61.2871 67.0315 61.8245 66.4941 62.4883 66.4941H64.8906C65.5544 66.4941 66.0918 67.0315 66.0918 67.6953C66.0918 68.3591 65.5544 68.8965 64.8906 68.8965Z" fill="#45556E"/>
<path d="M63.6895 53.2012C63.6895 52.5283 63.1611 52 62.4883 52C61.8154 52 61.2871 52.5283 61.2871 53.2012V54.4824H63.6895V53.2012Z" fill="#45556E"/>
<path d="M70.8965 53.2012C70.8965 52.5283 70.3682 52 69.6953 52C69.0225 52 68.4941 52.5283 68.4941 53.2012V54.4824H70.8965V53.2012Z" fill="#45556E"/>
<path d="M78.1035 53.2012C78.1035 52.5283 77.5752 52 76.9023 52C76.2295 52 75.7012 52.5283 75.7012 53.2012V54.4824H78.1035V53.2012Z" fill="#45556E"/>
<path d="M85.3105 53.2012C85.3105 52.5283 84.7822 52 84.1094 52C83.4365 52 82.9082 52.5283 82.9082 53.2012V54.4824H85.3105V53.2012Z" fill="#45556E"/>
</g>
<defs>
<clipPath id="clip0_9_10">
<rect width="145" height="141.754" fill="white"/>
</clipPath>
<clipPath id="clip1_9_10">
<rect width="41" height="41" fill="white" transform="translate(54 52)"/>
</clipPath>
</defs>
</svg>
